<svg id="Layer_1" data-name="Layer 1" xmlns="http://www.w3.org/2000/svg" viewBox="0 0 92.93 107"><defs><style>.cls-1{fill:#231f20;}</style></defs><title>handDrawnArrow2</title><path class="cls-1" d="M37.76,73.71C45,80.46,53.55,85.36,62.59,89.19a149.55,149.55,0,0,0,21.31,6.6,104.65,104.65,0,0,0-22.53,6.59c-2.61,1.07,2.14,6.43,4.29,5.51A109.16,109.16,0,0,1,96,100.23c2.91-.31.15-4.44-2.15-5.36a2.94,2.94,0,0,0-.46-.77A198.83,198.83,0,0,1,81.14,74.63c-.76-1.38-2.3-2.91-4-2.91s-1.38,1.69-.77,2.76c3.37,6,7,11.65,10.88,17.32-15.78-3.68-32-8-44.76-18.55A86.29,86.29,0,0,1,26,54.09,102.36,102.36,0,0,1,15.38,32.33,102.81,102.81,0,0,1,10,5.19,5.28,5.28,0,0,0,7,1.36C5.88.9,4.19.6,4.35,2.28A107.45,107.45,0,0,0,20,52,120.22,120.22,0,0,0,37.76,73.71Z" transform="translate(-4.34 -1)"/></svg>