<svg id="Layer_1" data-name="Layer 1" xmlns="http://www.w3.org/2000/svg" viewBox="0 0 75.54 82.25"><defs><style>.cls-1{fill:none;}</style></defs><title>handDrawnStar</title><path class="cls-1" d="M44.93,35.9c.15-.3.31-.59.48-.88l0-.09c-.11-.39-.23-.78-.34-1.17s-.16-.55-.24-.83h-.11C44.79,33.93,44.85,34.91,44.93,35.9Z" transform="translate(-7.55 -2)"/><path class="cls-1" d="M55.19,37.41c.4.56.82,1.11,1.23,1.67l0,0,.15-.13c-.35-.56-.71-1.15-1.09-1.72Z" transform="translate(-7.55 -2)"/><path class="cls-1" d="M33.21,55.6l.16-.2a.58.58,0,0,1-.24-.53,12.91,12.91,0,0,1,.75-2.72c-1.15,1.82-2.3,3.64-3.48,5.45-.36.56-.72,1.11-1.1,1.66C30.81,58.48,32.05,56.76,33.21,55.6Z" transform="translate(-7.55 -2)"/><path class="cls-1" d="M59.63,57.6c.11.32.23.63.34.95s.18.36.28.53h0l0,0c-.2-.53-.4-1.05-.61-1.58Z" transform="translate(-7.55 -2)"/><path class="cls-1" d="M57.07,37.8a5.65,5.65,0,0,0-.39-1.27l-.32.18C56.61,37.07,56.84,37.43,57.07,37.8Z" transform="translate(-7.55 -2)"/><path class="cls-1" d="M58.87,36.57l.29-.43c-.08-.19-.17-.38-.24-.58l-.23.08A7.27,7.27,0,0,1,58.87,36.57Z" transform="translate(-7.55 -2)"/><path class="cls-1" d="M48,54.15l-.7-.61c-.11.21-.23.41-.34.61.3.19.6.37.89.57Z" transform="translate(-7.55 -2)"/><path class="cls-1" d="M50.72,56.53c-.39-.34-.78-.7-1.18-1l-.11.19-.08.09c.45.33.89.67,1.33,1A2.51,2.51,0,0,1,50.72,56.53Z" transform="translate(-7.55 -2)"/><path class="cls-1" d="M56.75,41.39c-.53.44-1.07.86-1.6,1.29l.08.16,1.58-1.38Z" transform="translate(-7.55 -2)"/><path class="cls-1" d="M52.35,37.21l1-.56-.11-.17c-.33.2-.67.38-1,.57A1.19,1.19,0,0,0,52.35,37.21Z" transform="translate(-7.55 -2)"/><path class="cls-1" d="M29.29,60.37a4.13,4.13,0,0,1-.83.24h-.09l-.75,1.08L26.94,63Z" transform="translate(-7.55 -2)"/><path class="cls-1" d="M51.55,35.56l.76-.4h0l-.8.34A.21.21,0,0,1,51.55,35.56Z" transform="translate(-7.55 -2)"/><path class="cls-1" d="M51.7,58.94c-.62-.4-1.25-.78-1.88-1.14.92.62,1.85,1.24,2.75,1.9Z" transform="translate(-7.55 -2)"/><path class="cls-1" d="M54.3,36.13l.28-.16-.18-.23-.24.16A1.76,1.76,0,0,0,54.3,36.13Z" transform="translate(-7.55 -2)"/><path class="cls-1" d="M65.29,35l-.31.32.68-.5Z" transform="translate(-7.55 -2)"/><polygon class="cls-1" points="55.5 61.34 55.5 61.34 55.5 61.34 55.5 61.34"/><path class="cls-1" d="M59.06,55.9h0v0Z" transform="translate(-7.55 -2)"/><path class="cls-1" d="M51.79,57.5s0,.1-.08.14l.09.08.75.5Z" transform="translate(-7.55 -2)"/><path class="cls-1" d="M35.75,39.08c.22-.58.44-1.17.67-1.75-.42.47-.83.94-1.21,1.43Z" transform="translate(-7.55 -2)"/><path class="cls-1" d="M55.45,35.46l.54-.34-.24-.4-.55.43C55.28,35.25,55.37,35.35,55.45,35.46Z" transform="translate(-7.55 -2)"/><path class="cls-1" d="M58,37l-.23-.2a6,6,0,0,1,.23.83c.16-.17.31-.35.46-.52A.66.66,0,0,1,58,37Z" transform="translate(-7.55 -2)"/><path class="cls-1" d="M57.56,40.69l0,.06c.43-.39.85-.79,1.27-1.19Z" transform="translate(-7.55 -2)"/><path class="cls-1" d="M52,50.72c.07-.26.16-.54.25-.82l0-.07c-.16.45-.33.91-.51,1.35l.14.22C51.85,51.17,51.91,50.94,52,50.72Z" transform="translate(-7.55 -2)"/><path class="cls-1" d="M51,50.08l0,.05v0l0-.1Z" transform="translate(-7.55 -2)"/><path class="cls-1" d="M53.94,53.14c-.13.32-.27.63-.4,1l.08.13C53.72,53.86,53.83,53.5,53.94,53.14Z" transform="translate(-7.55 -2)"/><path class="cls-1" d="M48.55,52.2c-.16.14-.33.27-.5.4l.31.28C48.42,52.65,48.49,52.42,48.55,52.2Z" transform="translate(-7.55 -2)"/><path class="cls-1" d="M53.42,51.81,52.94,51c-.14.5-.27,1-.4,1.51l.35.53C53.07,52.66,53.25,52.24,53.42,51.81Z" transform="translate(-7.55 -2)"/><path class="cls-1" d="M43.11,40.48c.07-.22.13-.44.21-.66l-.22-.34C43.1,39.81,43.11,40.15,43.11,40.48Z" transform="translate(-7.55 -2)"/><path class="cls-1" d="M51.47,52.71l-.27-.41-.27.62.41.39C51.38,53.11,51.42,52.91,51.47,52.71Z" transform="translate(-7.55 -2)"/><path class="cls-1" d="M36.82,50.78l0-.16-.37-.25c-.44.91-.88,1.81-1.33,2.7C35.72,52.31,36.27,51.55,36.82,50.78Z" transform="translate(-7.55 -2)"/><path class="cls-1" d="M45.75,38.6c.07-.19.14-.39.2-.58l-.28.13-.12,0c-.06.18-.13.36-.17.52l-.05.16Z" transform="translate(-7.55 -2)"/><path class="cls-1" d="M36.75,43.47c-.1.23-.21.45-.32.67l.38-.61Z" transform="translate(-7.55 -2)"/><path class="cls-1" d="M50.46,53.85c-.11.22-.22.44-.34.66l.81.75c0-.28.1-.56.16-.84Z" transform="translate(-7.55 -2)"/><path class="cls-1" d="M47.88,30.89l.23.56.2,0c-.26-.49-.52-1-.77-1.49C47.66,30.26,47.76,30.58,47.88,30.89Z" transform="translate(-7.55 -2)"/><path class="cls-1" d="M52.22,53.89l0,.17.19.16,0,0Z" transform="translate(-7.55 -2)"/><path class="cls-1" d="M53.16,56.19l-.44-.37-.39.75.69.65C53.05,56.87,53.1,56.53,53.16,56.19Z" transform="translate(-7.55 -2)"/><path class="cls-1" d="M43,35.54c0,.45.05.9.07,1.35.33.31.67.63,1,1l.06-.16c-.1-1.16-.21-2.3-.3-3.46C43.52,34.67,43.24,35.1,43,35.54Z" transform="translate(-7.55 -2)"/><path class="cls-1" d="M53.44,39.27a.19.19,0,0,0,0,.07c.21.42.43.84.65,1.26l1.34-.86c-.35-.51-.68-1-1-1.52l-.14-.2-1.06.7A.45.45,0,0,1,53.44,39.27Z" transform="translate(-7.55 -2)"/><path class="cls-1" d="M56.58,60.56c-.25-.39-.51-.77-.76-1.15l-.18.31.93.91Z" transform="translate(-7.55 -2)"/><path class="cls-1" d="M54.55,57.46l0,0c-.17.24-.36.47-.55.69l.41.39C54.43,58.16,54.48,57.81,54.55,57.46Z" transform="translate(-7.55 -2)"/><path class="cls-1" d="M47.63,37.54l.32-.17,0-.07a1.46,1.46,0,0,0-.07-.19l-.37.17Z" transform="translate(-7.55 -2)"/><path class="cls-1" d="M54.28,47.08c.16.34.32.68.47,1-.11-.38-.23-.75-.34-1.13Z" transform="translate(-7.55 -2)"/><path class="cls-1" d="M30.37,37.17l-.08,0c-.68,1.71-1.3,3.44-2.14,5.08l.46.41C29,40.87,30,39,30.37,37.17Z" transform="translate(-7.55 -2)"/><path class="cls-1" d="M24,38.5l.26.22c.14-.45.29-.89.44-1.33C24.46,37.76,24.23,38.13,24,38.5Z" transform="translate(-7.55 -2)"/><path class="cls-1" d="M22,37l0,0,0-.07Z" transform="translate(-7.55 -2)"/><path class="cls-1" d="M25.48,39.79l.17.14c.08-.32.17-.65.25-1C25.76,39.23,25.63,39.51,25.48,39.79Z" transform="translate(-7.55 -2)"/><path class="cls-1" d="M21.06,36l-.2.21.19.12C21.05,36.24,21.05,36.13,21.06,36Z" transform="translate(-7.55 -2)"/><path class="cls-1" d="M27.6,58.59h0l-.33.63.15-.22C27.48,58.86,27.54,58.72,27.6,58.59Z" transform="translate(-7.55 -2)"/><path class="cls-1" d="M26.61,34.11l-.09.43.42.12.08-.15a.5.5,0,0,1,.91.38s0,.06,0,.09l.93.36c.17-.39.35-.78.53-1.16-.92,0-1.85-.08-2.78-.14A.2.2,0,0,1,26.61,34.11Z" transform="translate(-7.55 -2)"/><path class="cls-1" d="M26.48,35.55l-.18-.06c-.07.3-.16.6-.24.9C26.19,36.1,26.34,35.83,26.48,35.55Z" transform="translate(-7.55 -2)"/><path class="cls-1" d="M51.4,39.85c.12.39.25.78.35,1.18.08-.23.17-.45.25-.68-.11-.22-.21-.45-.32-.67Z" transform="translate(-7.55 -2)"/><path class="cls-1" d="M25.27,34.19l.13,0,.14-.25-.47,0A.5.5,0,0,1,25.27,34.19Z" transform="translate(-7.55 -2)"/><path class="cls-1" d="M24.47,34l.1-.06-.44,0Z" transform="translate(-7.55 -2)"/><path class="cls-1" d="M28.45,36.23,27.7,36c-.28,1.17-.59,2.34-.9,3.51A23.94,23.94,0,0,0,28.45,36.23Z" transform="translate(-7.55 -2)"/><path class="cls-1" d="M30.67,41.09a12.7,12.7,0,0,1-1.21,2.16.6.6,0,0,1-.08.08l.31.28.19.16A16,16,0,0,1,30.47,42,4.47,4.47,0,0,1,30.67,41.09Z" transform="translate(-7.55 -2)"/><path class="cls-1" d="M58.38,32.19l.31-.1a.49.49,0,0,1,.27-.55H57.87A4.48,4.48,0,0,1,58.38,32.19Z" transform="translate(-7.55 -2)"/><path class="cls-1" d="M56.46,32.5c-.12-.29-.23-.59-.33-.89l-.91.06.62,1Z" transform="translate(-7.55 -2)"/><path class="cls-1" d="M51.24,33a17.24,17.24,0,0,1,1.8-.71c.46-.15.88.51.49.83l-.33.26a2.91,2.91,0,0,1,.3.17q.63-.26,1.26-.48c-.29-.46-.56-.91-.8-1.34-1.38.11-2.75.26-4.12.44l.36.64A1.87,1.87,0,0,1,51.24,33Z" transform="translate(-7.55 -2)"/><path class="cls-1" d="M59.53,31.62l.18.2c.22-.05.44-.11.67-.15A.49.49,0,0,1,61,32a.52.52,0,0,1-.12.49l-.29.28c.27.3.55.6.84.89.09-.53.15-1,.28-1.58a.49.49,0,0,1,.61-.35.38.38,0,0,1,.22.13c.3.33.6.66.91,1a1.45,1.45,0,0,1,.92-1,4.34,4.34,0,0,1,1.79-.16.91.91,0,0,1,.14-.07c-2.3-.05-4.59-.09-6.88-.07Z" transform="translate(-7.55 -2)"/><path class="cls-1" d="M31.55,43.88l-.55.89.4.35c.17-.4.33-.82.5-1.22A1,1,0,0,1,31.55,43.88Z" transform="translate(-7.55 -2)"/><path class="cls-1" d="M65.23,37.36l1.51-1.09c1.15-.85,2.29-1.73,3.4-2.64.45-.38,1.17-.87,1.73-1.42C69.5,33.38,67.25,35.56,65.23,37.36Z" transform="translate(-7.55 -2)"/><path class="cls-1" d="M24.07,65.05a.67.67,0,0,1-.15-.14l-.13.34c-.05.14-.11.27-.16.4l.07-.05C23.82,65.41,24,65.23,24.07,65.05Z" transform="translate(-7.55 -2)"/><path class="cls-1" d="M65,71a5.89,5.89,0,0,0,.29.9l.27-.29a.37.37,0,0,1,.12-.13L65.17,71Z" transform="translate(-7.55 -2)"/><path class="cls-1" d="M26.9,41.06l.07.06.12-.33Z" transform="translate(-7.55 -2)"/><path class="cls-1" d="M35.46,34.42h0l0-.12Z" transform="translate(-7.55 -2)"/><path class="cls-1" d="M54.5,62.47c-.57-.5-1.16-1-1.76-1.42-2.85-1.75-5.6-3.78-8.57-5.34l-.16.12c1.82,1.07,3.6,2.2,5.37,3.34,1.14.7,2.28,1.4,3.41,2.12C53.37,61.67,53.94,62.06,54.5,62.47Z" transform="translate(-7.55 -2)"/><path class="cls-1" d="M32.08,38.1,31.94,38c-.21.5-.42,1-.62,1.51l.52-1Z" transform="translate(-7.55 -2)"/><path class="cls-1" d="M32.67,42l.15-.4c-.13.26-.27.52-.41.78.05,0,.11-.09.16-.15S32.64,42.07,32.67,42Z" transform="translate(-7.55 -2)"/><path class="cls-1" d="M31.33,34.45a6.1,6.1,0,0,1,.11,2.17l0,0A12.31,12.31,0,0,1,33,34.19c-.59,0-1.19,0-1.79,0A.41.41,0,0,1,31.33,34.45Z" transform="translate(-7.55 -2)"/><path class="cls-1" d="M45,27.63c.51,1,1,2,1.54,3a.53.53,0,0,1,.22,0c-.55-1.43-1-2.89-1.5-4.35C45.15,26.73,45.07,27.18,45,27.63Z" transform="translate(-7.55 -2)"/><path class="cls-1" d="M58.41,42l-.14.14c.86-.77,1.72-1.53,2.6-2.28l.1-.09C60.1,40.47,59.25,41.21,58.41,42Z" transform="translate(-7.55 -2)"/><path class="cls-1" d="M56.66,34l.34.47.22-.15c-.06-.16-.13-.32-.2-.49Z" transform="translate(-7.55 -2)"/><path class="cls-1" d="M59.47,65.7l-1.17-1,1,.94Z" transform="translate(-7.55 -2)"/><path class="cls-1" d="M58.41,34.7l.14,0,0-.08-.11.09Z" transform="translate(-7.55 -2)"/><path class="cls-1" d="M34.15,61.55l0,0-.1.07-.65.53,1.09-.81Z" transform="translate(-7.55 -2)"/><path class="cls-1" d="M49.2,34.1l.24-.13v-.16a.47.47,0,0,1,.06-.15c-.23-.44-.46-.89-.7-1.32l-.32,0Z" transform="translate(-7.55 -2)"/><path class="cls-1" d="M42.23,20.5l.09-.33-.11.26Z" transform="translate(-7.55 -2)"/><path class="cls-1" d="M36.45,34.73a9,9,0,0,1,.9-.2.34.34,0,0,1,0-.2c0-.13.1-.27.14-.4l-.81.07C36.62,34.24,36.54,34.49,36.45,34.73Z" transform="translate(-7.55 -2)"/><path class="cls-1" d="M32.85,36.13l.1,0a2,2,0,0,1,.07-.23C33,36,32.9,36,32.85,36.13Z" transform="translate(-7.55 -2)"/><path class="cls-1" d="M67.94,33.48a.44.44,0,0,1-.22.31c-.37.2-.75.38-1.13.57a4.39,4.39,0,0,0-.4.33l0,0a.56.56,0,0,1,.3.45c.85-.7,1.69-1.46,2.55-2.16A11.3,11.3,0,0,0,67.94,33.48Z" transform="translate(-7.55 -2)"/><path class="cls-1" d="M65.8,69.45c.69.82,1.37,1.64,2,2.47L68,72q-1.6-3.69-3.36-7.31A32.39,32.39,0,0,1,65.8,69.45Z" transform="translate(-7.55 -2)"/><path class="cls-1" d="M58,33.7l.06-.05L58,33.41l-.07,0Z" transform="translate(-7.55 -2)"/><path class="cls-1" d="M62.17,34.71l1-.7c-.23-.23-.46-.46-.68-.7A6.06,6.06,0,0,1,62.17,34.71Z" transform="translate(-7.55 -2)"/><path class="cls-1" d="M60.2,33.85c0,.13.06.26.1.39h0a.51.51,0,0,1,.51.5.68.68,0,0,1,0,.14c-.08.23-.16.46-.26.68s0,.25,0,.37l1.1-.84a.58.58,0,0,1-.37-.13A10.66,10.66,0,0,1,60.2,33.85Z" transform="translate(-7.55 -2)"/><path class="cls-1" d="M42.75,27.61l0,.05c.05-.29.08-.57.12-.86,0,0,0-.09,0-.13C42.81,27,42.78,27.3,42.75,27.61Z" transform="translate(-7.55 -2)"/><path class="cls-1" d="M58.6,61.72v.05l0,0Z" transform="translate(-7.55 -2)"/><path class="cls-1" d="M19.51,34.35A8.14,8.14,0,0,1,18.24,34a.57.57,0,0,1-.25-.21H17.8a9.53,9.53,0,0,0,1.41,1.28A3.54,3.54,0,0,1,19.51,34.35Z" transform="translate(-7.55 -2)"/><path class="cls-1" d="M30.54,34.21h-.07a.56.56,0,0,0,0,.12A.43.43,0,0,1,30.54,34.21Z" transform="translate(-7.55 -2)"/><path class="cls-1" d="M46.22,40.19l.08.09.33-.63-.24.1Z" transform="translate(-7.55 -2)"/><path class="cls-1" d="M41,51.68c.22-.7.45-1.39.7-2.08a.6.6,0,0,1-.28-.22.41.41,0,0,1-.24-.21l-.55.49a.58.58,0,0,1,.32.74h0a10.91,10.91,0,0,1-.7,1.19l.49.27Z" transform="translate(-7.55 -2)"/><path class="cls-1" d="M44.42,42.17V42.1c0,.14-.08.29-.13.44C44.33,42.42,44.37,42.29,44.42,42.17Z" transform="translate(-7.55 -2)"/><path class="cls-1" d="M40.53,44.92a.5.5,0,0,1,.66.1c0-.48,0-1,.05-1.43l-.34-.21C40.78,43.9,40.66,44.41,40.53,44.92Z" transform="translate(-7.55 -2)"/><path class="cls-1" d="M41.12,42.32l.18.12c0-.49.06-1,.1-1.45C41.31,41.43,41.22,41.88,41.12,42.32Z" transform="translate(-7.55 -2)"/><polygon class="cls-1" points="40.54 42.02 40.54 42.02 40.54 42.02 40.54 42.02"/><path class="cls-1" d="M39.88,52.54l-.2-.12c-.16.2-.32.39-.49.58l.06,0Z" transform="translate(-7.55 -2)"/><path class="cls-1" d="M49,43.5c.25-.7.5-1.41.7-2.13l-.15-.32-.21.13c-.27.59-.52,1.17-.77,1.77C48.67,43.13,48.81,43.32,49,43.5Z" transform="translate(-7.55 -2)"/><path class="cls-1" d="M40.35,47.21l-.35.57a1,1,0,0,1,0,.16.5.5,0,0,1-.36.45c-.31.5-.63,1-1,1.48,0,.11,0,.22-.07.32.8-.78,1.61-1.55,2.47-2.29Z" transform="translate(-7.55 -2)"/><path class="cls-1" d="M45.78,41.37h0l0-.1h0Z" transform="translate(-7.55 -2)"/><path class="cls-1" d="M54.51,55.58A11.3,11.3,0,0,0,55,54.46l-.32-.54c-.13.46-.26.93-.37,1.39Z" transform="translate(-7.55 -2)"/><path class="cls-1" d="M52.66,48.58l-.06,0v0l0,0C52.63,48.65,52.65,48.62,52.66,48.58Z" transform="translate(-7.55 -2)"/><path class="cls-1" d="M53.38,49.5c0,.08-.05.17-.08.26.13.19.25.38.37.57C53.57,50.06,53.47,49.78,53.38,49.5Z" transform="translate(-7.55 -2)"/><path class="cls-1" d="M37.5,53.35l-.17-.07c-.51.42-1,.85-1.52,1.3l-1.07,1.18C35.69,55,36.64,54.2,37.5,53.35Z" transform="translate(-7.55 -2)"/><path class="cls-1" d="M50.34,42.86l-.07-.14-.07.22Z" transform="translate(-7.55 -2)"/><path class="cls-1" d="M53.5,44v0l0,0Z" transform="translate(-7.55 -2)"/><path class="cls-1" d="M57.09,58l-.24-.43-.2.34.38.39Z" transform="translate(-7.55 -2)"/><path class="cls-1" d="M55.91,57.25l.37-.62c-.13-.24-.27-.47-.41-.71-.08.36-.16.73-.23,1.09Z" transform="translate(-7.55 -2)"/><path class="cls-1" d="M21,34.51v0l0,0Z" transform="translate(-7.55 -2)"/><path class="cls-1" d="M48.17,39.63l0,0,.18-.7-.28.12-.06.12C48.1,39.3,48.13,39.47,48.17,39.63Z" transform="translate(-7.55 -2)"/><path class="cls-1" d="M37.67,42.11c.06-.21.13-.41.19-.62l-.1-.06-.55,1.12.12.08h0Z" transform="translate(-7.55 -2)"/><path class="cls-1" d="M37.22,56.07a.4.4,0,0,1-.43,0c-.55.54-1.08,1.11-1.61,1.68.66-.47,1.33-.93,2-1.38l1.32-1.23Z" transform="translate(-7.55 -2)"/><path class="cls-1" d="M35.39,40l-.54-.32c-.16.42-.33.84-.51,1.24a4.59,4.59,0,0,0,.73-.06Z" transform="translate(-7.55 -2)"/><path class="cls-1" d="M38.23,52.56h0l.06-.07Z" transform="translate(-7.55 -2)"/><path class="cls-1" d="M36.43,46.08c-.41.7-.83,1.4-1.25,2.1h0l1.13-1.79C36.36,46.3,36.4,46.19,36.43,46.08Z" transform="translate(-7.55 -2)"/><path class="cls-1" d="M34.27,42.65l-.18.57a.35.35,0,0,1,.17-.17l.42-1.13a5.75,5.75,0,0,1-.83,0l-.06.11h0a.5.5,0,0,1,.5.47A.77.77,0,0,1,34.27,42.65Z" transform="translate(-7.55 -2)"/><path class="cls-1" d="M23.84,34.85l-.09,0a3.65,3.65,0,0,0-.14.35Z" transform="translate(-7.55 -2)"/><path class="cls-1" d="M22.63,34.55l-.32-.08c0,.26-.09.51-.13.76C22.33,35,22.49,34.78,22.63,34.55Z" transform="translate(-7.55 -2)"/><path class="cls-1" d="M33.55,37.8l.28-.6-.23,0a1.62,1.62,0,0,0-.1.18l-.12.3Z" transform="translate(-7.55 -2)"/><path class="cls-1" d="M33,38.63c-.41,1-.85,1.91-1.25,2.87.48-.92.93-1.85,1.38-2.8Z" transform="translate(-7.55 -2)"/><path class="cls-1" d="M48,45.39l.38-.29.06-.14-.54.26Z" transform="translate(-7.55 -2)"/><path class="cls-1" d="M44.84,47.73c.06-.14.11-.29.17-.44l-.47-.63-.81,1.9Z" transform="translate(-7.55 -2)"/><path class="cls-1" d="M43,52.27a1.07,1.07,0,0,1-.16-.14l-.08,0h0Z" transform="translate(-7.55 -2)"/><path class="cls-1" d="M46.8,49.73l-.26-.34-.62.46c-.08.19-.16.37-.25.56l.12.11Z" transform="translate(-7.55 -2)"/><path class="cls-1" d="M41.19,46.28v-.57c-.06.13-.14.25-.21.38Z" transform="translate(-7.55 -2)"/><path class="cls-1" d="M43.34,50l-.19-.18c-.07.16-.15.32-.22.47Z" transform="translate(-7.55 -2)"/><path class="cls-1" d="M45.47,44.48c0,.21.06.41.1.62L46,45l.06-.14.18-.4-.41-.66C45.68,44,45.57,44.24,45.47,44.48Z" transform="translate(-7.55 -2)"/><path class="cls-1" d="M46.7,43.33c.1-.22.21-.44.31-.67l0,0-.53.31Z" transform="translate(-7.55 -2)"/><path class="cls-1" d="M40.88,38.89l0-.08h0l0,0Z" transform="translate(-7.55 -2)"/><path class="cls-1" d="M48.63,48.27l-.19-.3c-.07.2-.13.41-.19.61Z" transform="translate(-7.55 -2)"/><path class="cls-1" d="M37,49.36l0,.09,0,0A.49.49,0,0,1,37,49.36Z" transform="translate(-7.55 -2)"/><path class="cls-1" d="M44.68,21.29c0-.18.09-.37.14-.56s-.1-.56-.14-.84l0,1.33Z" transform="translate(-7.55 -2)"/><path class="cls-1" d="M42.89,15.45c.31-.2.82-.08.78.38a9.66,9.66,0,0,1-.5,2.19.57.57,0,0,1,.3.15.38.38,0,0,1,.24-.15c0-.85.07-1.7.12-2.55-.13-.54-.26-1.07-.42-1.6C43.26,14.4,43.08,14.93,42.89,15.45Z" transform="translate(-7.55 -2)"/><path class="cls-1" d="M37.92,32.87c.28-.76.57-1.51.87-2.26-.35.08-.79-.23-.63-.61.27-.64.52-1.29.78-1.95.38-1.21.64-2.45.93-3.7-.26.86-.51,1.71-.78,2.56-.63,2-1.31,4-2,6Z" transform="translate(-7.55 -2)"/><path class="cls-1" d="M42.6,16.24c-.34.9-.7,1.8-1,2.7,0,.09.08.17.11.26A12.25,12.25,0,0,0,42.6,16.24Z" transform="translate(-7.55 -2)"/><path class="cls-1" d="M41.14,20.46l0-.08-.18.56C41,20.78,41.06,20.62,41.14,20.46Z" transform="translate(-7.55 -2)"/><path class="cls-1" d="M34.42,34.2l0-.05h0A.43.43,0,0,1,34.42,34.2Z" transform="translate(-7.55 -2)"/><path d="M11.38,34.54a.87.87,0,0,0,.54.45.69.69,0,0,0,.54.25l1.18.79c.4.27.74.56,1.12.84l-.15.61a.66.66,0,0,0,1.21.51l.08-.15a.65.65,0,0,0,1,.69c.24.19.47.39.7.59-.19.62-.37,1.24-.53,1.87a.66.66,0,0,0,1.21.51c.26-.38.47-.78.71-1.17l.52.48-.15.63a.66.66,0,0,0,1.1.64l.2-.22.48.44c-.26.75-.53,1.5-.78,2.26s.79,1.08,1.21.51.66-1,1-1.49l.88.82,1.7,1.52a2.21,2.21,0,0,0-.08.37.66.66,0,0,0,1.14.57l.75.64C24.62,52.8,22.15,58,19.76,63.23c-1.29,2.82-2.38,5.7-3.44,8.61C15.92,72.92,15.47,74,15,75a29.91,29.91,0,0,0-2.9,2.84.69.69,0,0,0,0,1,.72.72,0,0,0,.44.18,4.46,4.46,0,0,0,.73,0c-.16.39-.3.78-.46,1.17l-1,1.37a.64.64,0,0,0,.22.87.52.52,0,0,0,.27.1.68.68,0,0,0,1,.07.72.72,0,0,0,.2-.29l0-.08.33-.19a.62.62,0,0,0,.25-.84L14,81.1c1-1,2-2,2.95-3s2.3-1.88,3.38-2.83l.18-.15a.66.66,0,0,0,.85,1A161.22,161.22,0,0,0,37,65.05l1.48-1.16a25.57,25.57,0,0,0,4.42-2.69l.29.17c2.34,1.54,4.73,3,7.12,4.45l3,1.93,4.18,2.72c3,2.15,5.84,4.48,8.92,6.45.26.6.53,1.21.81,1.8s1.35.19,1.21-.51c0,0,0,0,0,0,.59.37,1.21.71,1.84,1A8,8,0,0,0,71.34,83a.65.65,0,0,0,.9.23,3,3,0,0,0,1.34-1.41v0c.32.26.64.54,1,.8l.73.92a.68.68,0,0,0,.86.22c.23.15.44.32.66.47.45.3,1.19-.2,1-.74-2.85-6.86-6.13-13.52-9.54-20.12C65.37,57.75,63,52,60.35,46.33c1-.87,2-1.75,3-2.64,3.14-2.18,6.25-4.39,9.36-6.61C75,35.45,77.25,33.79,79.39,32c1.37-1.13,3.23-2.2,3.67-4a.66.66,0,0,0-.46-.81.69.69,0,0,0-.35,0l-.2.08a.59.59,0,0,0-.32-.11c-7,.09-13.87-.05-20.75.19a1.1,1.1,0,0,0-.14-.09.77.77,0,0,0-.8.12l-1.86.09c-.21-.35-.42-.69-.65-1-.38-.58-1.47-.23-1.2.51.07.2.16.39.26.61-1.84.11-3.67.26-5.51.46a44,44,0,0,1-2.42-5,45.42,45.42,0,0,1-2.19-8.81c0-.1,0-.19,0-.29a.57.57,0,0,0-.13-.4C46,11.36,45.62,9.17,45.13,7q.06-1.3.15-2.61a.72.72,0,0,0,.06-.29V3.31A.66.66,0,0,0,44,3.26c-.09-.26-.16-.53-.26-.79-.21-.54-1.15-.71-1.27,0A41.52,41.52,0,0,1,40,10.08c-.44-.93-.88-1.86-1.36-2.78-.4-.75-1.54-.08-1.14.66.67,1.26,1.29,2.54,1.88,3.83-1.07,3.14-2,6.34-2.94,9.52-.85,2.74-1.77,5.46-2.72,8.17a.7.7,0,0,0-.83.21l-.49.68c-1.92.13-3.86.19-5.84.17-5.08-.08-10.27-.67-15.38-.58a.66.66,0,0,0-.75,0c-.75,0-1.5.06-2.24.12a.67.67,0,0,0-.66.68.56.56,0,0,0,.09.31A12.24,12.24,0,0,0,11.38,34.54ZM9.49,31.35h.25a.7.7,0,0,0,.34.27,12.21,12.21,0,0,0,1.68.44,3.88,3.88,0,0,0-.4,1A12.47,12.47,0,0,1,9.49,31.35Zm16.8.51a.4.4,0,0,0-.15.14.88.88,0,0,1,.05-.15Zm-12.64.39h0l0,0Zm1.79-.06.43.11c-.2.31-.4.61-.61.9l.18-1Zm2,.5-.3.44c.05-.15.11-.31.17-.47Zm10.41,8.78c.52-1.27,1.1-2.53,1.65-3.79l.17.1c-.6,1.24-1.19,2.47-1.83,3.68Zm2.44-5.64.31,0-.37.79L30,36.46l.15-.4Zm.26,6.33a.8.8,0,0,0,.08-.16,5,5,0,0,0,1.09,0l-.56,1.49a.47.47,0,0,0-.21.23c.07-.25.16-.5.23-.75a.65.65,0,0,0-.63-.81ZM32,39.09l.72.43-.43,1.14a6.2,6.2,0,0,1-1,.07c.23-.52.46-1.08.67-1.63Zm.44,23.83c.69-.75,1.4-1.49,2.12-2.21a.55.55,0,0,0,.57-.05l1.68-1.18L35,61.1l-2.64,1.82Zm0-12.65c.54-.93,1.09-1.85,1.64-2.77,0,.14-.09.28-.14.43l-1.49,2.36Zm4,5.77.11-.09-.08.1Zm-1.35-13.2.73-1.47.13.08-.25.82-.43.7v0ZM40.32,47v.76L40,47.5C40.13,47.34,40.23,47.18,40.32,47Zm-.4-9.09,0,.11v0l0-.06ZM48,43c-.13.29-.27.59-.41.88l-.34-.54.7-.41Zm2.14,7.39-.5.4c.08-.26.16-.53.25-.8Zm-3.44-4.55c0,.06,0,.13-.08.19l-.52.18c0-.27-.09-.54-.13-.82.13-.32.28-.63.42-1l.55.87-.24.53Zm-.14,6.63.82-.61c.11.15.23.3.34.46l-1.33,1-.15-.14c.11-.25.22-.5.32-.75Zm3.23-6.25-.5.37-.14-.22.71-.34ZM45.35,49.1c-.08.19-.15.39-.22.58l-1.47,1.09c.36-.83.72-1.66,1.07-2.5.21.27.41.55.62.83Zm-2.2,3.59-.54.4.29-.63Zm-.72,2.78a.76.76,0,0,0,.21.19l-.28-.11h0Zm9.94-12.21-.18.1.1-.28Zm-3,1.53Zm1.87-3.92c.06.14.13.28.19.43-.27.94-.58,1.88-.92,2.8L50,43.37c.33-.78.67-1.55,1-2.32ZM36.89,52.92l.09-.43c.44-.65.86-1.29,1.27-2a.68.68,0,0,0,.47-.6l0-.21c.15-.25.31-.49.45-.74l.95.9C39,50.86,37.94,51.88,36.89,52.92Zm9.48-11.63h0l.06-.16v0ZM40,53.21a.75.75,0,0,0-.4-1h0l.72-.65a.61.61,0,0,0,.33.28.74.74,0,0,0,.36.29c-.32.91-.62,1.82-.93,2.73l-.36.27-.64-.36A16.6,16.6,0,0,0,40,53.21Zm7-13.35-.11-.12c.08-.2.15-.39.22-.58l.33-.13C47.34,39.3,47.2,39.58,47.05,39.86Zm-2.48,2.48-.18.49c.06-.19.11-.39.17-.58ZM40.32,46.1a.65.65,0,0,0-.87-.13q.25-1,.48-2l.44.29c0,.62,0,1.25,0,1.88Zm-.1-3.55c.13-.59.25-1.18.37-1.76-.05.63-.09,1.27-.13,1.9Zm-1.9,13.31.27.16-.83.64-.08,0c.22-.25.44-.51.64-.77ZM60.21,61.4c-.17.27-.34.54-.5.81l-.35-.31c.09-.48.19-1,.31-1.44ZM61,62.68l.32.56c0,.14-.05.27-.07.4-.17-.17-.34-.35-.51-.51.08-.15.17-.3.26-.45ZM56.54,44.81l-.06,0,.05,0ZM49.82,38c-.07.3-.15.61-.24.92l-.06,0-.15-.65a1.09,1.09,0,0,0,.08-.15ZM34.75,51.82s0,.1,0,.15l-.05,0ZM35.24,57l.22.09c-1.14,1.12-2.39,2.15-3.64,3.18l1.41-1.56q1-.87,2-1.71Zm20.11-6.13.08-.06-.06.15,0,0Zm1,1.16c.13.36.25.73.38,1.09l-.47-.76a3.37,3.37,0,0,0,.1-.34Zm2.17,6.53c-.2.5-.43,1-.68,1.48l-.23-.35c.15-.62.31-1.23.49-1.83l.42.7Zm4.72,9.57,0,.1,0,0Zm-9-27.27c-.14-.52-.3-1-.46-1.55l.36-.23.42.88C54.46,40.24,54.34,40.54,54.24,40.84Zm-8.19-3.76a.42.42,0,0,0,.16,0l.38-.17c-.08.26-.17.51-.27.77l-.55.34,0-.2Zm-3.2,3c0-.44,0-.88,0-1.32l.29.45q-.15.44-.27.87Zm-8.38,3.94.07.07-.49.81.42-.88Zm-.36,9.09.48.33,0,.2c-.72,1-1.46,2-2.2,3,.59-1.18,1.17-2.36,1.75-3.55ZM50,55.56c-.09.3-.17.6-.25.91l-.41-.38Zm3.2-2.72,0-.08,0,0-.06.14Zm1.57-.39.06.09q-.18.55-.33,1.08c-.08.29-.15.59-.23.89l-.18-.28c.24-.6.46-1.19.68-1.79Zm1,1.6c.21.33.43.67.63,1-.22.56-.46,1.12-.7,1.67L55.28,56c.17-.68.34-1.34.52-2Zm1.32,2.76c-.15.48-.29.95-.43,1.43l-.11-.18q.29-.63.54-1.26Zm-3.61-1.12.35.55c-.06.27-.11.52-.17.78l-.54-.51C53.27,56.24,53.38,56,53.51,55.69ZM54.82,58c0-.07,0-.15,0-.22l.24.37,0,.07Zm3.07,4.45,0,0c-.08.46-.15.93-.22,1.38l-.54-.51c.25-.3.5-.61.73-.92Zm1.71,2.61,1,1.51,0,.1c-.41-.39-.81-.81-1.22-1.21.08-.14.16-.27.23-.41Zm-2-16.25.16-.15c.15.49.31,1,.46,1.49C58,49.71,57.78,49.26,57.57,48.82ZM49.29,35.93l-.06.09-.42.22-.09-.35.48-.22Zm2.8,22.67c.16-.28.3-.58.45-.87.27.26.55.51.83.76-.08.36-.14.73-.21,1.1l-1.07-1Zm3.43,1.72.57.49c-.08.45-.14.9-.18,1.36L55,61.31l.51-1Zm2.19-23.19c.45.65.89,1.33,1.36,2L57.3,40.27l-.87-1.66,0-.1a.6.6,0,0,0-.32-.72l1.4-.92a1.59,1.59,0,0,0,.17.27Zm-13.64-.49c-.43-.43-.87-.85-1.32-1.27,0-.58,0-1.18-.09-1.78.36-.57.73-1.14,1.1-1.71.12,1.52.26,3,.4,4.55a1.28,1.28,0,0,0-.09.22ZM42.43,23.22l-.06-.06c0-.42.08-.83.14-1.24a1.11,1.11,0,0,1,.07.16C42.53,22.46,42.49,22.84,42.43,23.22ZM26.1,62.68c1.54-2.38,3.06-4.78,4.58-7.18a16.52,16.52,0,0,0-1,3.58.75.75,0,0,0,.31.7L29.8,60c-1.54,1.54-3.16,3.8-5.16,4.82C25.14,64.14,25.62,63.41,26.1,62.68Zm22.29-5.35.92.81c-.06.24-.13.49-.2.74-.38-.26-.78-.5-1.17-.74C48.09,57.87,48.25,57.6,48.39,57.33Zm2.79,2.82.14-.25,1.55,1.38c0,.11,0,.23,0,.34-.57-.46-1.15-.92-1.75-1.36ZM58.72,43l2.1-1.7.09.09c-.69.61-1.38,1.22-2.08,1.82Zm3.22-2.55,0-.07,1.73-1.5C63.07,39.43,62.51,40,61.94,40.47Zm-1.51-2.23,0,0c-.55-.73-1.1-1.46-1.63-2.19l.43-.27c.51.75,1,1.52,1.44,2.27Zm-15-7c.15.51.3,1,.46,1.54l0,.11c-.22.38-.43.77-.63,1.16-.1-1.3-.18-2.6-.24-3.89l.14,0C45.25,30.53,45.36,30.9,45.47,31.27Zm-22,35.36h.11a4.67,4.67,0,0,0,1.09-.31l-3.09,3.43c.3-.57.59-1.14.89-1.7Zm42-2v0l-.37-.71c-.14-.41-.3-.83-.44-1.25l0-.19c.27.69.53,1.39.81,2.08a.1.1,0,0,0,0,.05Zm-4.2-28q-.45-.73-.93-1.44l.42-.24A8.15,8.15,0,0,1,61.24,36.59Zm-4.86-1.53L55,35.81c0-.07-.07-.15-.11-.22q.68-.36,1.32-.75ZM33.15,38.27l-.72-.41c.51-.65,1-1.28,1.6-1.89C33.73,36.73,33.44,37.5,33.15,38.27Zm21,24.47.12-.19,1,.94-1-.66Zm9.7-2.3,0,0,0,0ZM62.51,36.32a10.34,10.34,0,0,0-.3-1.09l.29.27a.82.82,0,0,0,.61.14C62.92,35.87,62.72,36.1,62.51,36.32Zm-2.7-3.26-.71.44-.32-.39.73-.58.3.53ZM58,34.17l-.38.22-.19-.3.33-.21c.08.09.15.19.23.29Zm-3-1.05-1,.53a.42.42,0,0,1,0-.1c.34-.15.7-.29,1-.43Zm-.81,31.32,1.15,1c-1.19-.85-2.41-1.67-3.63-2.5C52.53,63.42,53.35,63.92,54.17,64.44Zm15,5.8Zm2.95-37.36.49-.23c-.3.21-.59.44-.89.66C71.81,33.16,71.94,33,72.07,32.88ZM64,34.39c-.12.2-.25.39-.38.57a8.9,8.9,0,0,0-.24-1.23l.3-.1C63.79,33.89,63.89,34.14,64,34.39ZM22.41,64h0c-.09.18-.17.36-.25.54l-.2.28C22.11,64.52,22.26,64.24,22.41,64Zm42,9.38-.24-.15L62.86,72ZM62.82,42.27l.19-.19q1.67-1.5,3.36-2.94l-.12.12q-1.73,1.49-3.42,3Zm.37-9.83-.19.05v0l.16-.12Zm-2-.27-.45-.61.48-.23c.09.21.17.43.26.64Zm-13.84-5-2-4c.14-.6.24-1.2.36-1.8.6,1.93,1.24,3.85,2,5.74a.67.67,0,0,0-.28,0Zm-14.49,5h-.06l.12-.16Zm-4.69,4.77.18.1c-.1.19-.21.38-.31.58s-.43.8-.68,1.31C27.58,38.21,27.85,37.55,28.13,36.89Zm1.16,4.69c-.07.17-.13.35-.2.53l-.13.31-.22.19c.19-.34.37-.69.55-1ZM30.84,68l.13-.09.08,0,.38-.23L30,68.73ZM44,60.34l.21-.16c3.9,2.06,7.53,4.74,11.28,7.05.79.59,1.57,1.21,2.32,1.87q-1.11-.81-2.25-1.56c-1.49-1-3-1.88-4.5-2.79-2.32-1.51-4.67-3-7.06-4.41ZM75.43,81.56c-.88-1.1-1.78-2.18-2.68-3.26A41.11,41.11,0,0,0,71.17,72q2.33,4.77,4.43,9.65l-.17-.13ZM73.62,33.11a.75.75,0,0,0-.4-.6s0,0,0,0c.17-.16.35-.29.53-.43.5-.25,1-.49,1.49-.75a.58.58,0,0,0,.3-.41c.45-.23.92-.44,1.4-.63C75.84,31.18,74.74,32.18,73.62,33.11ZM68,32.52a8.39,8.39,0,0,0,.41-1.85c.29.31.6.62.9.92C68.85,31.9,68.4,32.2,68,32.52Zm-1.12.32a.72.72,0,0,0,.49.16c-.49.36-1,.74-1.45,1.11l-.06-.49a6.94,6.94,0,0,0,.34-.9.65.65,0,0,0-.45-.81l-.18,0h-.05c0-.17-.08-.34-.13-.51A14.67,14.67,0,0,0,66.85,32.84Zm-4.26-1.72-.09.07-.15-.35.09,0,.15.32Zm-11.32,0a.49.49,0,0,0-.07.19v.21l-.33.18c-.31-.76-.63-1.51-.95-2.27l.42-.06c.32.58.62,1.16.93,1.75ZM41.69,13.78l0-.08.14-.35C41.77,13.5,41.73,13.64,41.69,13.78ZM35.29,32a.63.63,0,0,0,0,.27c-.39.06-.79.16-1.18.26l.33-.95,1.08-.09Zm-6,2.37c.07-.12.16-.23.23-.35l-.09.3Zm-1.79.69-.06,0a8.34,8.34,0,0,0-.14-2.86.57.57,0,0,0-.2-.32c.79,0,1.58,0,2.36,0a15.79,15.79,0,0,0-2,3.25Zm-3.48-1.73q-.6-.26-1.23-.48l0-.11c.14-.7-.83-1.19-1.21-.51l-.1.21L21,32.28c0-.19.09-.37.12-.56v-.08c1.22.07,2.44.13,3.65.17C24.51,32.32,24.28,32.82,24.05,33.34Zm-.52,1.18a32.13,32.13,0,0,1-2.18,4.25c.41-1.54.82-3.07,1.18-4.63.34.12.67.24,1,.38Zm-2.6-.9c-.19.37-.38.74-.56,1.11.11-.39.22-.78.32-1.18l.24.07Zm-1.42-1.75-.17,0a.61.61,0,0,0-.26-.31l.62,0Zm-1.22-.3-.45-.12.58,0a.6.6,0,0,0-.13.09Zm-4.77,3c.09-.09.19-.18.27-.27,0,.14,0,.28,0,.43Zm1.53,1,.06-.07,0,.09Zm2.59,2q.48-.73.93-1.47c-.19.59-.39,1.17-.58,1.76Zm2,1.69c.19-.36.38-.73.56-1.1-.11.43-.23.86-.34,1.3Zm1.87,1.68c.09-.12.17-.24.26-.35l-.16.43Zm1.66,1.51C24.24,40.24,25.06,38,26,35.7l.1.06c-.47,2.43-1.74,4.87-2.32,7.18Zm2,1.85c-.13-.13-.27-.25-.41-.37l.1-.11a16.49,16.49,0,0,0,1.59-2.84,5.78,5.78,0,0,0-.26,1.25,22.68,22.68,0,0,0-.78,2.28l-.25-.21Zm1.72,1.53c.25-.39.49-.78.73-1.17a1.36,1.36,0,0,0,.45,0c-.22.53-.43,1.07-.66,1.61Zm-9.5,27c.05-.15.11-.3.17-.45a.86.86,0,0,0,.19.19l-.48.71-.1.08C17.24,73.11,17.32,72.94,17.39,72.76ZM72.44,81.1l-.35.38a6.28,6.28,0,0,1-.39-1.18.53.53,0,0,0,.22,0l.68.62a.81.81,0,0,0-.16.16Zm6-50c-1.46,1.2-3,2.35-4.48,3.48L72,36c2.67-2.38,5.63-5.25,8.76-6.79-.74.73-1.69,1.37-2.29,1.87Zm-5.07-2.67-.19.09a5.84,5.84,0,0,0-2.35.22,1.92,1.92,0,0,0-1.21,1.34q-.6-.63-1.2-1.29a.66.66,0,0,0-1.1.29c-.17.69-.23,1.39-.37,2.08-.38-.38-.74-.77-1.1-1.17l.38-.37a.67.67,0,0,0,0-.93.65.65,0,0,0-.65-.17c-.3,0-.59.12-.88.19l-.24-.26a.83.83,0,0,0-.15-.11c3,0,6,0,9.06.09Zm-9.65-.09a.65.65,0,0,0-.36.73l-.41.12a7.6,7.6,0,0,0-.67-.83l.56,0c.29,0,.58,0,.88,0Zm-3.73.1c.13.4.27.79.43,1.17l-.82.28L58.8,28.5,60,28.44Zm-2.87.2c.31.56.68,1.15,1.06,1.76-.56.2-1.11.42-1.66.63l-.4-.23c.14-.11.29-.21.43-.33.52-.42,0-1.29-.64-1.1a20.14,20.14,0,0,0-2.37.94,2.45,2.45,0,0,0-1.38-.25l-.47-.85c1.81-.23,3.61-.42,5.42-.57Zm-7.7-.41-.3-.74c-.16-.41-.3-.84-.45-1.25.33.66.66,1.31,1,1.95l-.26,0ZM45.1,14.09l-.18.74a1,1,0,0,1,0-.1c0-.58,0-1.16,0-1.75ZM43.79,7.15c-.06,1.12-.13,2.24-.16,3.37a.51.51,0,0,0-.31.19.75.75,0,0,0-.39-.19,13,13,0,0,0,.65-2.88c.06-.61-.61-.77-1-.5.25-.69.48-1.39.68-2.09.21.7.38,1.4.55,2.1Zm-1.61,1A16.11,16.11,0,0,1,41,12.07c0-.11-.09-.23-.14-.34.42-1.19.9-2.37,1.34-3.55Zm-1.93,5.55c-.1.21-.19.43-.29.64l.24-.75Zm-2.7,8.51c.35-1.12.68-2.24,1-3.37-.38,1.64-.71,3.28-1.22,4.88-.33.85-.66,1.71-1,2.56-.21.51.38.9.83.8-.39,1-.77,2-1.14,3l-1.12.11C35.82,27.55,36.72,24.91,37.55,22.24Zm-6.15,9.6a.2.2,0,0,1,0-.07h0Z" transform="translate(-7.55 -2)"/></svg>