<svg id="Layer_1" data-name="Layer 1" xmlns="http://www.w3.org/2000/svg" viewBox="0 0 271.89 79.94"><defs><style>.cls-1{fill:#231f20;}</style></defs><title>handDrawnArrow3</title><path class="cls-1" d="M123.72,140.84c-19.57,4.76-37.44,13.91-53.95,25a296.62,296.62,0,0,0-34.66,28.92,210.25,210.25,0,0,0,13.11-45.67c1-5.62-13.52-3.5-14.26,1.17a216.49,216.49,0,0,1-19.77,60.16c-2.64,5.3,7.55,5.21,11.66,2.32a6.93,6.93,0,0,0,1.83.07,407.74,407.74,0,0,1,47.16.78c3.23.23,7.56-.67,9.4-3.54s-1.42-4.22-3.95-4.37c-14.06-.91-27.92-1-41.94-.75,23.6-22.77,48.76-45.64,81-55.52,16.33-5,34-6.88,51.31-6.86A212.42,212.42,0,0,1,220,148.8a215.73,215.73,0,0,1,53,21c3.09,1.62,7.42.72,10-1,2-1.31,4.34-3.84,1.25-5.46A224.91,224.91,0,0,0,180.89,134.8C162.07,134.88,142.41,136.27,123.72,140.84Z" transform="translate(-13.76 -134.8)"/></svg>