<svg id="Layer_1" data-name="Layer 1" xmlns="http://www.w3.org/2000/svg" viewBox="0 0 93.26 108.1"><title>handDrawnWrench</title><path d="M54.4,59.9c-.1.1,0,.3.1.5s.3.2.4.3a11,11,0,0,0,1.5,1.6,2.41,2.41,0,0,1,.8.6c.2.2.4.5.6.7a4.62,4.62,0,0,0,.7.7,5.53,5.53,0,0,0,1.2,1.4c.3.1.7-.2,1.1-.4A9,9,0,0,0,63,63.4v-.1c.3-.3.6-.5,1-.9a28.94,28.94,0,0,1,4.4-3.6c.2-.1.4-.3.6-.3,0,0,0,.1.1,0a.31.31,0,0,0,.2-.1h.2c.1,0,.2-.1.3-.2s.2.1.3.1a.9.9,0,0,1,.5.1,5.41,5.41,0,0,1,1.9,1.8c0,.1.1.1.2.2a10.54,10.54,0,0,1,.7,1.1v.1a9.74,9.74,0,0,1,.5,1.1s-.1,0,0,.1.1.2.1.3.2.4.2.6.1.2.2.4a1.07,1.07,0,0,1,.2.6.37.37,0,0,0,.1.3c.1.1.1.5.2.6s.1.2.1.3V66a1.42,1.42,0,0,1,.2.6s-.1,0,0,.1a1.42,1.42,0,0,0,.2.4v.2c0,.2.1.6.1.9v.3a1.06,1.06,0,0,0,.2.5.14.14,0,0,1,0,.2c0,.1.1.1.1.2a.35.35,0,0,0-.1.2l.1.1v.5a5.58,5.58,0,0,1,0,1.3,7.52,7.52,0,0,1,0,1.5l-.3,1.5c-.1.2-.1.5-.2.7a.37.37,0,0,1-.1.3.14.14,0,0,0,0,.2l-.1.1a2,2,0,0,0-.1.5s.1,0,0,.1,0,.2-.1.3a.76.76,0,0,1-.2.4c0,.1.1,0,0,.1s-.2.7-.3.7-.1.3-.2.4l-.1.1a.1.1,0,0,1,.1.1l-.1.1c0,.1,0,.1-.1.2l-.1.2a.1.1,0,0,1,.1.1,3.33,3.33,0,0,0-.3.6s.1.1,0,.1c-.2.3-.5.8-.7,1.1a13.67,13.67,0,0,1-3,3.5,3,3,0,0,1-.7.5l-.1.1h-.1a9,9,0,0,1-1,.9H68l-.1.1c-.1,0-.1.1-.2.1s-.1.1-.2.1-.1.1-.2.1-.1.1-.2.1-.1.1-.2.1-.1.1-.2.1-.2.1-.3.1a.76.76,0,0,1-.5.2h-.2l-.1.1a2.07,2.07,0,0,0-.6.2.37.37,0,0,0-.3.1c-.1,0-.2.2-.3.2a.35.35,0,0,0-.2-.1l-.1.1a.35.35,0,0,0-.2-.1c-.4.1-.8.2-1.3.3-.1,0,0-.1-.1,0l-.2.1a.35.35,0,0,0-.2-.1l-.1.1c-.1,0-.3-.1-.4-.1s-.3.1-.4.1a3.75,3.75,0,0,0-1,.1.35.35,0,0,1-.2.1l-.1-.1a5.63,5.63,0,0,1-1.3,0c-.1,0-.1,0-.2-.1a.6.6,0,0,1-.4-.1h-.2l-.1-.1a.35.35,0,0,1-.2.1c-.1,0-.1-.1-.2-.1s-.2.1-.3.1-.1-.1-.2-.1a.35.35,0,0,1-.2.1l-.1-.1h-.2a2.35,2.35,0,0,0-.8-.2h-.2l-.1.1c-.1,0-.1-.1-.2-.1h-.2l-.1-.1a.1.1,0,0,1-.1.1l-.1-.1a.1.1,0,0,1-.1.1c-.1,0-.2-.1-.3-.2a.35.35,0,0,1-.2.1l-.4-.2c-.2,0-.4-.1-.6-.1h-.6a17.73,17.73,0,0,0-1.7,1.4,4.62,4.62,0,0,0-.7.7c-.7.6-1.6,1.3-2.3,2-.2.2-.3.5-.6.6-.1,0-.1,0-.2.1a4.35,4.35,0,0,0-.7.6c-.5.5-1.1.9-1.6,1.4-.9.9-1.7,1.7-2.7,2.6,0,0-.2.3-.3.3s-.6.5-.9.7h-.1l-.3.3c-.1.1-.2.1-.3.2a9,9,0,0,1-.9,1l-.1.1c-.1,0-.1.1-.2.1h-.1c-.2.1-.4.3-.7.5l-.1.1a1.33,1.33,0,0,0-.5.3,21,21,0,0,0-1.7,1.4l-.9.6a19.2,19.2,0,0,1-1.5,1.4l-.1.1c-.1,0-.3.2-.5.4s-.3.2-.4.3-.4.5-.6.7-.6.5-1,.9c0,0-.2.3-.3.3-.4,0-.7.7-1.2,1-.1,0-.1,0-.2.1s-.2.3-.3.3-.2.1-.3.2c-.6.5-1.1,1.2-1.7,1.6-.1.1-.2.1-.3.2a3,3,0,0,0-.7.5c-.3.3-.6.7-.9,1h-.1a7.53,7.53,0,0,1-.9.9h-.1a4.35,4.35,0,0,1-.7.6h-.1c-.3.2-.6.6-.9.8h-.1c-.1.1-.1.1-.2.1-.3.1-.6.3-.9.4l-.1.1c-.1,0-.1.1-.3.2s-.3.2-.6.5l-.1.1a4.35,4.35,0,0,1-.7.4s-.1-.1-.1,0l-.1.1c-.1,0-.2.1-.4.2a9.38,9.38,0,0,0-1.2.9,9.44,9.44,0,0,1-.9.3c-.1,0-.1.1-.2.1a.35.35,0,0,0-.2-.1c-.1,0-.2.2-.4.3,0,0-.1-.1-.1,0a1.42,1.42,0,0,0-.4.2c-.1,0,0-.1-.1,0a2.27,2.27,0,0,1-.4.1l-.1-.1c-.2,0-.4.1-.7.1h-.7l-.1.1a.25.25,0,0,0-.4,0c-.2,0-.3-.1-.5-.1s-.7.1-1,.1l-.1-.1h-.3a.76.76,0,0,1-.4-.1H9.9l-.1-.1a.35.35,0,0,1-.2.1c-.1,0-.2-.1-.3-.2s0,.1-.1,0a.76.76,0,0,1-.4-.2c-.2-.1-.4-.1-.6-.2,0,0-.1.1-.1,0l-.1-.1c-.1,0-.1-.1-.2-.1s-.7-.4-1-.6a11,11,0,0,1-1.2-1.1,5.17,5.17,0,0,1-1.5-1.8.37.37,0,0,1-.1-.3c-.1-.1-.2-.2-.2-.3s-.2-.5-.3-.7-.3-.2-.3-.3v-.1l-.1-.1v-.1c-.1-.1-.1-.2-.2-.3v-.2c-.1-.2-.2-.3-.2-.5v-.2a4.33,4.33,0,0,1-.1-.5,3.08,3.08,0,0,0-.1-.9,4.33,4.33,0,0,1-.1-.5s.1,0,0-.1a9.63,9.63,0,0,1,0-1.7c.1-.1,0-.4.1-.5v-.2l.1-.1a.1.1,0,0,1-.1-.1,4.33,4.33,0,0,0,.1-.5v-.2l.1-.1a2.92,2.92,0,0,1,.2-.9c.1-.3.4-.5.6-.8.3-.5,1.2-1.2,1.8-1.9a.31.31,0,0,1,.1-.2c.8-1,1.9-1.9,2.9-3,.1-.1.2-.3.3-.4l.4-.4,1.1-1.1c.3-.3.4-.5.7-.8a18.86,18.86,0,0,1,2-2c.5-.5,1.1-.9,1.6-1.4s1.1-1.1,1.6-1.6l1.5-1.2c.8-.7,1.5-1.4,2.3-2.1a19.2,19.2,0,0,0,1.5-1.4c.2-.2.5-.4.7-.6s.6-.8.9-1.1L24,82.3c.1-.1.1-.2.2-.3.2-.3.4-.4.6-.7.1-.1.1-.2.2-.3s.5-.4.7-.6a19.2,19.2,0,0,1,1.4-1.5,11.41,11.41,0,0,0,1.1-1.1l.1-.1c0-.2.4-.5.6-.7a4.35,4.35,0,0,0,.6-.7c.2-.2.3-.5.5-.6s.6-.4.9-.7a7.64,7.64,0,0,0,.9-.9,20.35,20.35,0,0,1,1.8-1.5,15.76,15.76,0,0,0,1.2-1.5c.5-.6,1.2-1.2,1.9-2.1,0-.1.1-.2.1-.3s-.1-.2-.2-.4a2.74,2.74,0,0,1-.2-1.3,1.42,1.42,0,0,1-.2-.6s.1,0,0-.1a.31.31,0,0,0-.1-.2v-.2c0-.1-.1-.2-.2-.3v-.2a.37.37,0,0,0-.1-.3v-.2l-.1-.1a.25.25,0,0,0,0-.4v-.8c0-.2-.1-.5-.1-.7a14.92,14.92,0,0,1,.2-2.1c0-.1-.1-.2-.1-.3a.35.35,0,0,1,.1-.2c0-.3-.1-.7-.1-1a.37.37,0,0,1,.1-.3v-.2l.1-.1a2.54,2.54,0,0,1,.2-.7c0-.1-.1,0,0-.1s0-.2.1-.3,0-.2.1-.3a1.9,1.9,0,0,0,.3-.9,4.12,4.12,0,0,1,.3-.8s-.1,0,0-.1,0-.2.1-.3,0-.2.1-.3,0-.2.1-.3,0-.2.1-.3,0-.2.1-.3l.1-.1c.1-.2.4-.7.6-1,.1-.1.2-.1.2-.2s.3-.5.5-.7a3.82,3.82,0,0,1,.9-.9c.2-.2.5-.3.7-.6.1-.1.4-.6.7-.9.1,0,.1,0,.2-.1.4-.3.7-.8,1.1-1,0,0,.1.1.1,0l.1-.1a3.63,3.63,0,0,0,.7-.3s.1.1.1,0l.1-.1c.1,0,.2-.1.3-.2.3-.1.8-.4,1.2-.5a.76.76,0,0,0,.4-.2c.1-.1.2-.1.3-.2s.2-.1.4-.2.2-.1.3-.2h.2a1.42,1.42,0,0,1,.6-.2c.1,0,.2-.1.3-.2h.2l.1-.1a.35.35,0,0,0,.2.1c.1,0,.2-.1.3-.2s0,.1.1,0a.31.31,0,0,0,.2-.1.37.37,0,0,0,.3-.1c.1-.1.2,0,.3-.1a.75.75,0,0,1,.5-.1c.1,0,.3,0,.3-.1s.2-.1.3-.1a2.07,2.07,0,0,0,.6-.2h.3a.37.37,0,0,0,.3-.1h.6c.4,0,.8-.1,1.1-.1h1.4c.1,0,.2-.1.3,0a.1.1,0,0,0,.1.1h.5a4.33,4.33,0,0,0,.5.1c.2,0,.3.1.5.1s.2.1.4.2h.2a4.88,4.88,0,0,0,.7.3c.4.2.8.4,1.3.6.1.1.3.1.4.2.3.2.6.3.9.5a6.4,6.4,0,0,1,1.5,1.4v.1s.2.1.2.2.1.2.2.4c0,0-.1.1,0,.1s0,.2.2.4l.3.6.1.1a.1.1,0,0,0-.1.1l.1.1a.1.1,0,0,0-.1.1l.1.1a.1.1,0,0,0-.1.1l.1.1a.35.35,0,0,0-.1.2l.1.1a4.33,4.33,0,0,0-.1.5c0,.1-.1.2-.2.3v.2c-.1.4-.1.9-.3,1.1a2.19,2.19,0,0,1-.5.3c-.2.2-.4.3-.7.6a6.13,6.13,0,0,0-.6.4c-.5.4-1,1-1.6,1.5l-3.1,2.8c-.1.1-.2.1-.4.3A1.2,1.2,0,0,0,54.4,59.9Zm-5.6-.5a1.09,1.09,0,0,1,.1-.5,1.18,1.18,0,0,1,.4-.7c.1-.2.1-.2.2-.2s.2-.2.2-.2a4.35,4.35,0,0,0,.7-.6h.1a9,9,0,0,0,1-.9c.1-.1,0-.1.1-.2h.1l.1-.1c.3-.2.5-.4.8-.6,1.2-.9,2.3-2,3.4-2.9.3-.2.6-.5.9-.7l.1.1c.1,0,.3-.3.3-.3a5.92,5.92,0,0,0,.6-.4c.1,0,.2-.2.2-.2.1-.2.1-.1-.1-.5a1.42,1.42,0,0,0-.6-.2.37.37,0,0,1-.3-.1,1.07,1.07,0,0,0-.6-.2h-.2c-.2,0-.6-.1-.7-.1s-.1,0-.2-.1h-.2c-.1,0-.2-.2-.3-.2s-.2.1-.3.1a.37.37,0,0,1-.3-.1h-.8c-.1,0-.2-.1-.3-.1a.35.35,0,0,0-.2.1h-.1c-.1,0-.1,0-.2.1h-.2c-.1.1-.2.1-.3.2H52c-.1,0-.2.2-.3.2s-.3-.1-.5-.1a.35.35,0,0,0-.2.1h-.1c-.1,0-.1,0-.2.1h-.2c-.1,0-.2.1-.3.2H50c-.1,0-.2.1-.3.2h-.1a1,1,0,0,0-.3.1c-.1.1-.1,0-.1,0a9.44,9.44,0,0,0-.9.3c-.1.1-.1,0-.1,0a3.33,3.33,0,0,0-.6.3c-.1.1-.1.1-.2.1s-.2.1-.3.2-.3.1-.4.2c-.5.3-1.2.6-1.6.9s-.8.9-1.3,1.3c-.1.1-.2.1-.3.2a9.43,9.43,0,0,0-1,1c-.1.1-.1.3-.2.5a.85.85,0,0,0-.3.5v.2l-.1.1v.1c-.1.2-.3.3-.3.5v.2c0,.1-.1.2-.2.3v.2c0,.1-.1.2-.2.3v.2s0,.2-.1.2,0,.1,0,.1-.1.2-.2.3a.35.35,0,0,1,.1.2l-.1.1v.2c0,.1-.1.2-.2.3v.1a1,1,0,0,1-.1.3c-.1.1,0,.1,0,.1-.1.2-.2.2-.2.3a.35.35,0,0,1,.1.2l-.1.1a.35.35,0,0,1,.1.2l-.1.1a.25.25,0,0,1,0,.4v.1c-.1.3,0,.5-.1.7,0,.5-.1,1.1-.1,1.6v.6c0,.4-.1.7-.1,1.1a.35.35,0,0,0,.1.2c0,.1-.1.2-.1.3s.1.2.1.3a.1.1,0,0,0-.1.1l.1.1a.1.1,0,0,0-.1.1l.1.1a.1.1,0,0,0-.1.1l.1.1c0,.1-.1.2,0,.2s0,.2.1.3v.3l.1.1c.1.1,0,.1,0,.1a4.05,4.05,0,0,0,.5.9,2,2,0,0,0-.1.7c0,.1-.1.2-.1.3v.2l.1.1c0,.2,0,.3.1.4s0,.1,0,.1a1.39,1.39,0,0,1,0,.9c0,.1-.2.2-.2.3s-.2.3-.2.4-.3.2-.3.2l-.4.4c-.3.3-1.4,1.2-1.4,1.5l-.3.3a21.24,21.24,0,0,1-2.6,2.6.31.31,0,0,0-.1.2l-.3.3c-.9,1-2,2-2.7,2.9-.2.2-.5.4-.6.6a8.83,8.83,0,0,1-2.1,2.2,17.67,17.67,0,0,0-1.5,1.8v.1a10,10,0,0,1-1,1.1c-.7.8-1.5,1.4-2.2,2.2v.1l-.1.1A15.73,15.73,0,0,1,23,90.7c-.8.7-1.5,1.5-2.2,2.1-.3.3-.6.4-.9.7s-.5.4-.7.6-.2.1-.3.2a8,8,0,0,1-1.3,1.3h-.1c-.2.2-.2.4-.4.5a2.19,2.19,0,0,1-.5.3,16.61,16.61,0,0,1-1.4,1.3,5.5,5.5,0,0,1-.9.7v.1a8.12,8.12,0,0,0-1,.9c-.2.2-.3.4-.5.6s-.3.4-.5.6-.2.1-.3.2-.1.1-.2.2a14.46,14.46,0,0,1-2.1,2.2c-.2.2-.3.4-.5.6a1.44,1.44,0,0,1-.3.2,2.2,2.2,0,0,0-.5.6l-.3.3a2.19,2.19,0,0,1-.3.5,2.68,2.68,0,0,0-.6,1.2c-.1.4-.3.7-.2,1l-.1.1a2.77,2.77,0,0,0,.1.9c.1.1,0,.1,0,.1s.1.1.1.2a.25.25,0,0,0,0,.4.1.1,0,0,0-.1.1l.1.1v.2a4.33,4.33,0,0,0,.1.5l.1.1v.2l.1.1c.1.1,0,.1,0,.1a4.17,4.17,0,0,0,.6.8c.4.5,1.1,1.5,1.6,1.7a3.78,3.78,0,0,0,1.2.1h.6l.1-.1a.35.35,0,0,0,.2.1h.2l.2-.1c.1,0,.1-.1.2-.1h.1c.2-.1.3-.2.5-.3h.2a.35.35,0,0,0,.2-.1,3.33,3.33,0,0,0,.6-.3c.3-.2.4-.3.6-.3s.2-.1.3-.2c.3-.2.7-.3,1-.5s.6-.5.9-.7h.1l.1-.1c.6-.4,1.2-.8,1.7-1.1h.1c.1-.1.1-.2.2-.2H19a4.5,4.5,0,0,0,1-.9c.1-.1.1-.4.3-.5s.1,0,.2-.1.1-.2.2-.2a7.27,7.27,0,0,0,.9-.8l1.4-1.1a2.19,2.19,0,0,1,.5-.3,2.19,2.19,0,0,0,.3-.5c.2-.2.6-.3.7-.5a7.64,7.64,0,0,1,.9-.9c.3-.3.6-.5.9-.8a5.5,5.5,0,0,0,.9-.7,10,10,0,0,0,1-1.1,4.62,4.62,0,0,1,1-.7c.3-.2.4-.5.6-.6s.7-.3,1-.5c.1-.1.2-.3.3-.4a1.18,1.18,0,0,1,.5-.5c.2-.1.3-.4.5-.5s.6-.5.9-.7c.1,0,.1,0,.2-.1a1.33,1.33,0,0,1,.5-.3h.1a12.13,12.13,0,0,0,1.4-1,6.82,6.82,0,0,0,.7-.5c.1,0,.1-.1.2-.2a1.24,1.24,0,0,0,.3-.2l.6-.6c.1-.1.2-.1.3-.2.4-.3.6-.7,1-1s.9-.7,1.3-1.1c.5-.6.9-1.2,1.4-1.7.4-.3.9-.4,1.3-.7s.9-.9,1.4-1.3c.1-.1.1,0,.2-.1v-.1c.1-.1.1-.2.2-.2h.1c.3-.3.7-.5.9-.7v-.1c0-.1.1-.1.2-.2s0-.1.1-.2a5.79,5.79,0,0,1,1.9-1.4l.3-.3c.1-.1.2-.1.3-.2s.3-.4.5-.6a5.74,5.74,0,0,1,.9-.8c.1-.1.2-.2.3-.2a.1.1,0,0,0,.1.1c.2,0,.4-.5.6-.5a.75.75,0,0,1,.5.1.37.37,0,0,1,.3.1c.1.1.3,0,.3,0a4.33,4.33,0,0,1,.5.1l.1.1a.1.1,0,0,1,.1-.1l.1.1a.1.1,0,0,1,.1-.1l.1.1h.2a.76.76,0,0,1,.4.2c.1,0,.1,0,.2.1s.1.1.2.1a.35.35,0,0,1,.2-.1c.1,0,.1.1.2.1s.5,0,.6-.1.1,0,.3.1.2-.1.2,0,.1,0,.1,0,.1.1.2.1h.2c.1,0,.1.1.2.1a.25.25,0,0,1,.4,0c.3.1.6,0,.9.1h.2c.1,0,.1.1.2.1h.5c.2,0,.3.1.5.1s.6-.1,1-.1h1.3a.37.37,0,0,0,.3-.1h1c.2,0,.3-.1.5-.2a.1.1,0,0,0,.1.1c.2-.1.3-.2.4-.2l.1-.1a.1.1,0,0,0,.1.1l.1-.1c.1,0,.2-.1.3-.1.4-.2.8-.7,1.1-.6l.1-.1a2.19,2.19,0,0,0,.5-.3c.1-.1.1-.2.2-.3a2.2,2.2,0,0,1,.6-.5l.1-.1h.1c.3-.2.3-.4.5-.3l.1-.1a1.33,1.33,0,0,1,.5-.3c.3-.3.5-.6.7-.8v-.1c.2-.3.5-.6.5-.7l.1-.1c.1-.2.2-.3.3-.5.5-.9,1-1.9,1.4-2.7a.35.35,0,0,1,.1-.2c.1-.1,0-.1,0-.1s.2-.2.2-.3v-.2c0-.1.1-.1.1-.2v-.2c0-.1.1-.1.1-.2v-.2c0-.1.1-.1.1-.2v-.5a.35.35,0,0,1,.1-.2V73c0-.1.1-.1.1-.2v-.2c0-.2.1-.3.1-.5v-.2c0-.2.1-.6,0-.8a1.27,1.27,0,0,1-.1-.6,1.48,1.48,0,0,0-.1-.7.76.76,0,0,0-.1-.4v-.3c-.1-.3-.1-.5-.2-.8a.1.1,0,0,0,.1-.1l-.1-.1v-.2c0-.1-.1-.2-.2-.3v-.1c-.1-.3-.3-.5-.3-.8a.37.37,0,0,0-.1-.3c-.1-.1-.1-.1-.1-.2l-.1-.2a.85.85,0,0,0-.3-.5,1.52,1.52,0,0,0-1,.6c-1.1.9-2.1,2.1-3.3,3.1-.5.4-1.2.9-1.6,1.3-.2.2-.3.3-.4.3s-.2.2-.3.3a9.74,9.74,0,0,0-1.5,1c-.1.1-.1,0-.1,0-.2.1-.5.2-.7.3s-.2.3-.3.3a.35.35,0,0,0-.2-.1,2,2,0,0,1-.7-.1,7.27,7.27,0,0,1-.9-.8h-.1a6.2,6.2,0,0,1-1.4-1.4,8.12,8.12,0,0,0-.9-1,8.12,8.12,0,0,1-1-.9,6.07,6.07,0,0,1-.7-1,2.19,2.19,0,0,0-.5-.3c-.2-.2-.3-.4-.5-.5s-.2-.1-.2-.2l-.2-.2c-.2-.2-.4-.2-.5-.4a2.19,2.19,0,0,1-.3-.5c-.1-.2-.3-.3-.5-.5a2.19,2.19,0,0,1-.3-.5.31.31,0,0,0-.2-.1A8,8,0,0,1,50,62.9c-.1-.1-.1-.2-.2-.2l-.2-.2c-.5-1.5-.6-1.5-.5-2.1A5.39,5.39,0,0,1,48.8,59.4Z" transform="translate(-2.36 -9.2)"/><path d="M84.43,19.14c.26.09.34.09.51-.08s.17-.09.26-.17.17-.09.25-.17.17-.09.26-.17.17-.09.25-.17a3.89,3.89,0,0,1,.6-.43c.09-.08.26-.25.34-.25s.17-.17.26-.17.17-.18.25-.18.17-.17.26-.17l.17-.08.08-.17h.17l.09-.17h.17l.08-.17c.18-.09.26-.09.43-.17s0-.09.09-.09l.17-.08.08-.17h.17l.09-.17h.17l.08-.17h.17l.09-.17h.17l.08-.17a3.73,3.73,0,0,0,.6-.26l.09-.09c.08-.08.25,0,.34-.08l.08-.17h.17c.09-.09.09-.26.17-.26a5.07,5.07,0,0,1,1.2-.59c.85-.09,1.36.42,2,.93.09.17-.08.34,0,.52a1.61,1.61,0,0,1,0,.93v.17a2.54,2.54,0,0,0-.26.43.31.31,0,0,1-.08.25c0,.09-.17.09-.17.09-.17.26-.34.43-.51.68a4.47,4.47,0,0,1-.43.68c-.25.26-.68.34-1,.6-.09.08-.17.25-.34.34a3.29,3.29,0,0,1-.6.34c-.08,0,0,.09-.08.09s-.17.17-.26.17-.25.17-.42.25-.09.17-.18.17h-.17l-.08.17c-.09.09-.17,0-.26.09s-.08.17-.17.25-.17,0-.25.09-.26.34-.43.42-.08.09-.17.09-.17.17-.25.26h-.17l-.09.17h-.17l-.09.17h-.17l-.08.17c-.09.08-.17,0-.26.08s-.25.34-.42.43l-.77.77c-.08.17-.34.17-.34.42a.79.79,0,0,0,.43.6.32.32,0,0,1,.17.08l.34.34c.08.09.17,0,.25.09s.09.17.09.17.17,0,.25.08.09.17.17.17.26.18.34.26.17,0,.26.09.17.34.34.51a1.92,1.92,0,0,1,.94.42l.34.34c.08.09.08.17.17.17h.17c.08.09.26.17.43.34s.08.18.17.18h.17a2,2,0,0,0,.42.34c.09.08.09.17.17.17H92a2.38,2.38,0,0,0,.43.34.31.31,0,0,1,.25.08c.09.09.26.34.43.51.09,0,.17.17.17.17h.17v.09c.09.08.17,0,.26.08s.08.17.17.17.17,0,.25.09.26.34.43.51.26.17.34.26,0,.25.09.34l.17.08v.17l.17.09c.08.17,0,.25.17.34.08.34-.09.6-.09.85.09,0,.09.09.09.17s.17.26.08.51a2.36,2.36,0,0,1-1,1,1.61,1.61,0,0,1-.43.59c-.17.09-.42.09-.59.17.08,0-.51.26-.6.09s-.08-.09-.26-.09h-.17c-.08-.08-.76-.08-1-.17a.08.08,0,0,0-.08-.08c-.09,0-.17-.17-.34-.17l-.26-.09-.26-.25c-.08,0-.08-.09-.17-.09l-.25-.08c.34.25.34.08.17,0l-.17-.09-.26-.26h-.17l-.08-.17h-.17c-.09-.08-.09-.25-.26-.25L89,33.37l-.25-.25c-.09,0-.09-.09-.17-.09s-.26-.25-.35-.25-.08-.17-.17-.17h-.17l-.25-.26c-.09,0-.09-.08-.17-.08l-.09-.09c-.34-.17-.68-.08-.93-.26-.09,0,0-.08-.09-.08s-.17-.26-.34-.34h-.17c-.09-.09-.09-.17-.26-.26s-.17-.08-.25-.17-.17-.08-.26-.17a1.28,1.28,0,0,0-.68-.34c-.17.09-.17.17-.26.34a1.14,1.14,0,0,0-.08.51c-.09.51,0,1-.09,1.71,0,.25-.08.59-.08,1,0,.26.08.26,0,.51,0,.09.17.77,0,.85a1.9,1.9,0,0,0-.26,1.2,4.39,4.39,0,0,1-.08,1c0,.34-.17.68-.17.94a22.61,22.61,0,0,0,0,2.47v.17a19.47,19.47,0,0,0,0,2.3c0,.25-.09.42-.09.59s.09.52.09.77c.08.77.08,1.71.08,2.56a16.64,16.64,0,0,1-.08,2c-.09.26,0,.68-.09,1.11a1.51,1.51,0,0,1-.17.68,9.09,9.09,0,0,0-.25,2.3c-.09.09-.17.09-.26.17l-.08.17c-.09.09-.26,0-.35.09a1.2,1.2,0,0,1-.85.17c-.17,0-.59-.34-.93-.43h-.17L80,53.74c-.09-.17-.26-.17-.43-.34l-.34-.34a1.4,1.4,0,0,1-.59-.69,2.34,2.34,0,0,1-.09-1.1c-.08-.94-.08-1.79-.08-2.9a.08.08,0,0,0,.08-.09.08.08,0,0,1-.08-.08v-.26c0-1.1,0-2.21.08-3.41,0-.17.09-.34.09-.51.08-1.62-.17-3.57,0-5.28a20.5,20.5,0,0,0,.08-2.21,41.63,41.63,0,0,1,0-4.61c.09-.76.43-1.44,0-2.13-.34-.17-.6.26-.85.26-.09,0-.17.17-.26.17s-.08.09-.17.09-.08.17-.17.17H77.1v.08a.29.29,0,0,0-.25.09l-.09.17c-.08.08-.17,0-.25.08l-.09.17c-.08.09-.17,0-.25.09s-.18.34-.35.42-.17,0-.25.09l-.09.17c-.08.08-.17,0-.25.08s-.26.35-.43.43-.25.17-.34.26-.08.17-.17.17h-.17c-.43.42-.43.59-.68.59s-.17.26-.34.26-.09.17-.17.17h-.17v.08c-.26.17-.51.09-.77.17,0,0,0,.09-.08.09s-.69.34-1,.26c0,0,0-.09-.08-.09a.83.83,0,0,1-.43-.08.5.5,0,0,1-.34-.09l-.34-.34a1.74,1.74,0,0,1-.34-.43c-.17,0-.17,0-.17-.17s-.09-.08-.09-.08a3.13,3.13,0,0,1,.17-1.71c0-.08.09,0,.09-.08s.25-.34.34-.43h.17c.09-.08.09-.17.26-.25a3.2,3.2,0,0,0,.68-.43c.25-.25.34-.51.68-.68.08,0,.08-.09.17-.09s.17-.08.26-.17.17-.08.25-.17a.46.46,0,0,1,.26-.08c.08-.09.08-.26.25-.26s.17-.17.26-.17.17-.17.25-.17.26-.25.43-.34a5,5,0,0,1,.68-.43c.26-.17.77-.51,1.19-.85.09,0,0-.08.09-.08s.17-.17.34-.17.17-.17.26-.17a.73.73,0,0,0,.34-.17c.51-.34,1.36-.6.93-1.37,0-.08-.08,0-.08-.08s-.51-.51-.68-.68l-.51-.52c-.26-.17-.52-.17-.69-.34s-.42-.51-.59-.76a2,2,0,0,1-.26-.43,2.93,2.93,0,0,0-.51-.43,3.45,3.45,0,0,0-.6-.42.29.29,0,0,1-.25-.09l-.09-.17c-.08-.08-.17-.08-.34-.17s-.17-.08-.25-.17l-.17-.17c-.17-.08-.34-.25-.51-.34l-.09-.17c-.09-.08-.17-.08-.34-.17l-.09-.17c-.08-.09-.17-.09-.34-.17L71,19.23c-.09-.09-.26-.09-.34-.17l-.34-.34c-.09-.09,0-.17-.09-.26s-.17,0-.17-.08-.17-.26-.26-.43-.25-.17-.34-.25,0-.17-.08-.26-.43-.26-.51-.43,0-.17-.09-.25l-.17-.09a.31.31,0,0,1-.08-.25l-.09-.34c-.25-.17-.08-1.79,0-2.13,0-.09.09,0,.09-.09s.17-.17.25-.25a1.25,1.25,0,0,1,.34-.26c.09,0,.09-.09.17-.09s.34-.25.51-.25.18-.17.26-.17.26-.17.51-.17c.85-.09,1.45.51,2.39.34l.25.25c.43.35.86.86,1.37,1.28.25.17.42.43.68.6.08.08.17.08.25.17s.34.34.43.34l.17.09.09.17h.17c.08.08.08.17.17.25h.17c.08.09.08.17.25.26a2.43,2.43,0,0,1,.6.42c.08.09.17.09.25.17l.09.17H78c.08.09.08.17.17.26h.17c.09.09.34.43.6.43.34-.43.25-.86.34-1.45a43.09,43.09,0,0,1,.17-4.86,1.51,1.51,0,0,1,.17-.6.55.55,0,0,1,.08-.34c0-.08.17-.08.17-.17a2.63,2.63,0,0,1,.69-.68c.08-.08.17-.25.25-.25s.34-.09.51-.09.17-.17.17-.17h.26a1.79,1.79,0,0,1,.94,0,1.19,1.19,0,0,1,.59.09.08.08,0,0,0,.09.08c.08,0,.76.6.76.77a.27.27,0,0,1,.09.17c.08.17.08.25.17.42s.09.17.09.26a7.41,7.41,0,0,1,.17,2,15.68,15.68,0,0,0-.09,2.22A13.79,13.79,0,0,0,84.43,19.14Z" transform="translate(-2.36 -9.2)"/></svg>