<svg id="Layer_1" data-name="Layer 1" xmlns="http://www.w3.org/2000/svg" xmlns:xlink="http://www.w3.org/1999/xlink" viewBox="0 0 81.54 96.5"><defs><style>.cls-1,.cls-2,.cls-3{fill:none;}.cls-2{clip-path:url(#clip-path);}.cls-3{clip-path:url(#clip-path-2);}.cls-4{clip-path:url(#clip-path-23);}</style><clipPath id="clip-path"><polygon class="cls-3" points="-19.39 -9.07 117.02 -9.07 116.75 118.75 -19.67 118.75 -19.39 -9.07"/></clipPath><clipPath id="clip-path-2"><polygon class="cls-2" points="-19.39 -9.07 117.02 -9.07 116.75 118.75 -19.67 118.75 -19.39 -9.07"/></clipPath><clipPath id="clip-path-23" transform="translate(-5.6 -5.3)"><polygon class="cls-1" points="-19.39 -9.07 117.02 -9.07 116.75 118.75 -19.67 118.75 -19.39 -9.07"/></clipPath></defs><title>handDrawnArrow</title><g class="cls-4"><g class="cls-4"><path d="M86.19,57A59.77,59.77,0,0,0,87,49.86,33.68,33.68,0,0,0,87.15,46a7.57,7.57,0,0,0-.41-3A1.24,1.24,0,0,0,84.56,42,57.7,57.7,0,0,1,78.83,49a37.33,37.33,0,0,1-3.41,3,21,21,0,0,0-1.91,1.37,75.57,75.57,0,0,0-7.37-8.73c-2.73-2.73-5.59-5.32-8.32-8-2.46-2.46-4.5-5.05-6.82-7.78-.55-.68-1.09-1.23-1.64-1.91C48,25.3,46.63,23.67,45.4,22c-1.77-2.18-3.68-4.5-5.45-6.68a56.52,56.52,0,0,0-5.6-5.87,21.62,21.62,0,0,0-2.72-2.32A12.41,12.41,0,0,0,29.44,5.8L29,5.39c-.27-.28-.54.13-.54.41l-.14.13a14.06,14.06,0,0,0-3.14,2.46c-1.09.95-2.18,1.77-3.27,2.73-2.18,1.91-4.36,4-6.41,6A72.39,72.39,0,0,0,10.34,23C9,24.76,7.89,26.81,6,28.17a.71.71,0,0,0-.27.95.41.41,0,0,0,0,.55,1.83,1.83,0,0,0,.41.55.69.69,0,0,0-.28.54c0,.41.14.68.14,1.09-.41.28-.27,1,0,1.37,0,.13.14.13.14.13.13,1.37.41,2.73.54,4.1A27.74,27.74,0,0,0,8,44c.13.28.41.28.68,0,1.5,1.91,3.14,3.69,4.91,5.6,4.91,5.18,9.55,10.64,14.05,16.09Q34,73.26,40,81.24c-.28.27-.55.4-.82.68-1.5,1.09-2.87,2.18-4.37,3.27a7.88,7.88,0,0,0-2,1.64c-.14.13-.28.13-.41.27A1.69,1.69,0,0,0,31.76,89h0l-1.23,2.46c-.27.54-.54,1.22-.81,1.77A4.37,4.37,0,0,0,29.17,95v.14c-.27.41-.14.82.41.95.82.14,1.64.28,2.59.41,7.23,1.23,14.46,2.32,21.69,3.41,3.69.55,7.23,1,10.92,1.37l5.45.41a38.26,38.26,0,0,0,5.46,0c.27,0,.54-.41.54-.68a1.41,1.41,0,0,0,.82-.28A9.42,9.42,0,0,0,79,99.38a11.46,11.46,0,0,0,1.78-1.77,5.71,5.71,0,0,1,1-1h0c.14,0,.27-.14.41-.27l.41-.41c.41-.27.68-.55,1.09-.82s1.23-1,1.5-1.64a.52.52,0,0,0,.41-.13,1.65,1.65,0,0,0,1-1.37c0-1.36-.14-2.73-.14-4.09V84.1c0-3.68.14-7.5.14-11.19s0-7.36-.14-10.91c0-1.77-.14-3.68,0-5.46-.27.69-.27.55-.14.41m-78-21.41H8a.48.48,0,0,0-.14-.41c.14.13.27.27.27.41h0m0,1.36v-.14l.14.14c0-.14,0-.14-.14,0m.55,2.86c0-.27-.14-.54-.14-.95.14.27.41.41.55.68-.14.14-.28.14-.41.27M9,44H9a17.71,17.71,0,0,0-.14-2.72,20,20,0,0,0,2.87,4.5,18.92,18.92,0,0,0,1.5,1.91A49.79,49.79,0,0,0,9,44m6.55,3.28a41.34,41.34,0,0,1-3-3.82,1.71,1.71,0,0,1-.41-.55c.27.28.41.55.68.82,1,1.23,1.91,2.46,3,3.68a.5.5,0,0,1-.27-.13M16.76,43c-1.64-1.91-3.14-3.82-4.91-5.73l-2-2.46a24.94,24.94,0,0,0-1.64-1.91,5.71,5.71,0,0,0-1-.81c0-.28-.14-.41-.14-.69l.14.14,1.5,1.5c.95,1,1.91,2.05,2.86,3,2,2.05,4,4.09,6,6.28.27.27.54.68.81,1,.28.55.55,1,.82,1.5,1.09,1.78,2.05,3.55,3.28,5.32L22.35,50c-1.09-1.37-2.05-2.87-3.14-4.23-.95-1-1.77-1.91-2.45-2.73M27.12,59.55,25.9,58.32c-.55-1-1.23-1.91-1.78-2.87-1.09-1.5-2-3-3.13-4.36,2,2.59,4.09,5,6.27,7.36a.49.49,0,0,0,.41.14c1.09,1.23,2.18,2.59,3.41,3.82l.14.14c2.45,3.41,5,6.68,7.5,10l-.14-.13c-1.36-1.64-2.73-3.28-4.23-4.91-2.31-2.59-4.77-5.32-7.23-7.91M44.86,76.73a6.13,6.13,0,0,0-.68,1c-1.1-1.64-2.32-3.28-3.55-4.91C36.54,67.18,32.31,61.73,28.22,56l-4.51-6.55c1.1,1.09,2.05,2.32,3,3.41,2.19,2.59,4.23,5.18,6.42,7.91,2,2.73,4.09,5.32,6,8.19.95,1.36,1.91,2.73,2.73,4.09a20,20,0,0,0,1.36,2.18c.55.55,1.09,1,1.64,1.5m-.27-2.32,1.09,1.1c0,.13-.14.13-.14.27s-.27.41-.27.54a8,8,0,0,0-.55-1.63c0-.14-.13-.14-.13-.28m-3.28,1.64c-.13-.13-.13-.27-.27-.41.82,1,1.5,1.91,2.32,2.87h0l-.82.82a.48.48,0,0,0-.14-.41,4.71,4.71,0,0,0-.54-1.23c-.14-.14-.28-.41-.41-.55a1.12,1.12,0,0,0-.14-1.09m-2.73.41.82.82c.55.54,1,1.09,1.5,1.64.28.27.55.68.82,1-.14.14-.27.14-.27.27a43.7,43.7,0,0,1-2.87-3.68m-8,19h0c.41,0,.82.14,1.23.14a3.7,3.7,0,0,1-1.23-.14m1.23-2.86c.41-.82.68-1.78,1.09-2.59a7.64,7.64,0,0,0,1.78-.14.68.68,0,0,0,.54.27c-.68.14-1.5.28-2.18.41s-1.23,1.64-.14,1.78c.28,0,.55.13.82.13a8.78,8.78,0,0,0-1.91.14m43.52,8.32c-.14.14-.14.27-.27.41-.55-.14-1.09-.14-1.64-.27-1.77-.28-3.55-.28-5.32-.41s-3.68-.41-5.46-.55c-3.68-.41-7.23-1-10.91-1.5L40.77,96.92l-5.46-.82c-.55-.13-1.09-.13-1.64-.27l5.46.41c2.86.27,5.73.41,8.73.82s6,.68,8.87,1.23c.68.13,1.5.27,2.18.41s1.5.13,2.18.27c1.37.14,2.73.55,4.09.55h.28l1.5.27c1.63.27,3.41.54,5.05.68a1.68,1.68,0,0,1,.81.14c.41,0,.82.13,1.23.13s.68.14,1.09.14c.14-.14.14,0,.14,0M37.76,92.69c1.37,0,2.87,0,4.23.14,3.14.27,6.42.68,9.55,1.09a24.59,24.59,0,0,1,3.14.55c-2.59-.28-5.18-.55-7.78-1-1.91-.27-3.68-.41-5.59-.54-.82-.14-1.77-.14-2.73-.28h-.82m38.88,6.14c-.13.14-.27.28-.27.41s-.27-.13-.27,0c-.27,0-.55-.13-1-.13l-2-.41c-2.19-.41-4.37-.69-6.55-1.09,3.68,0,7.37,0,11.18.13a9.33,9.33,0,0,0-1.09,1.09m8-49.65a92.76,92.76,0,0,0-.82,10.64c0,3.68,0,7.36-.13,10.91s-.14,7.37-.28,11.19c0,1.91-.13,3.82-.13,5.59a27.92,27.92,0,0,0,.13,4.78c-.27,0-.4.13-.68.13.14,0-.27,0-.41.14a17.51,17.51,0,0,1-2.59.27,45,45,0,0,1-5.86-.54c-2.6-.41-5.19-1-7.64-1.37-2.87-.54-5.87-.82-8.73-1.09-7.1-.55-14.33-1.23-21.42-2.32,2-1.64,4.09-3.14,6.14-4.91a22.84,22.84,0,0,0,3.54-3.68,9.3,9.3,0,0,0,2-4,.79.79,0,0,0-.82-.82V74a.14.14,0,0,0-.14-.14l-.4-.82a1,1,0,0,0-.28-.82,29.4,29.4,0,0,1-2.73-3.14c-.81-1.09-1.63-2.18-2.59-3.27-1.77-2.18-3.68-4.37-5.45-6.55-.82-1-1.64-2-2.6-3a2.57,2.57,0,0,1-1.63-1.91c-3.14-3.68-6.41-7.37-9.69-10.91-1.23-1.37-2.45-2.59-3.82-4-1.09-1.23-2-2.32-3.14-3.41a42.32,42.32,0,0,0-3.41-3.55.42.42,0,0,0-.54,0l-.28-.27C9.66,31.72,9,31,8.3,30.49A9.33,9.33,0,0,0,6.93,29.4a17.15,17.15,0,0,0,4.64-4.78,42.33,42.33,0,0,1,5.05-5.86c2.05-2.05,4.09-4.23,6.14-6.14,1.09-1,2.18-2,3.27-3a22.8,22.8,0,0,0,2.73-2.46c.41.41.82.68,1.23,1.09.27.14.41.41.68.55l6.14,7c2.73,3.13,5.46,6.27,8,9.41,2.32,2.73,4.5,5.45,6.82,8.32,2,2.59,4.36,5,6.68,7.5,4.51,4.64,9.42,9,13,14.33.14.27.28.41.55.41a.52.52,0,0,0,.41.13c1.5,0,3-1.09,4.23-1.91A42.21,42.21,0,0,0,85,45.77a26,26,0,0,1-.27,3.41" transform="translate(-5.6 -5.3)"/><path d="M49.63,66.5C46.36,63,43.08,59.27,40,55.73c-.41-.41-.68-.82-1.09-1.23v-.28A80.21,80.21,0,0,1,36,42.9c0-.13-.27-.13-.27,0a73.7,73.7,0,0,0,2.45,10.92C37,52.45,35.72,51,34.49,49.59a4.76,4.76,0,0,1-.27-1.37c-.27-1.36-.68-2.86-1-4.23a79.56,79.56,0,0,0-2.45-8c0-.14-.28-.14-.28,0,.82,2.59,1.64,5.32,2.32,7.91.28,1.36.69,2.73,1,4.09.14.27.14.68.27.95-2.18-2.59-4.5-5-6.82-7.5A71.72,71.72,0,0,0,13.35,29.67c-.14-.14-.28,0-.28.14h0a9.09,9.09,0,0,1,2.32-4c1.37-1.64,2.73-3.27,4.23-4.77s3.14-2.87,4.78-4.23a27.54,27.54,0,0,1,3.27-2.6c.27-.27.14-.68-.27-.54l-.82.41a28.89,28.89,0,0,0-4.09,3.14c-1.64,1.5-3.28,3-4.78,4.5a26,26,0,0,0-3.82,4.77,6.35,6.35,0,0,0-1.23,3.69c0,.27.28.13.28-.14v-.27l.13.13a99.78,99.78,0,0,1,10.78,9.28q5.52,5.52,10.64,11.46a2.76,2.76,0,0,1,.82.54,2.86,2.86,0,0,1,.82,1.37c.13.27.41.41.54.68,4.1,4.64,8,9.28,12.55,13.51.28.13.55-.14.41-.28" transform="translate(-5.6 -5.3)"/><path d="M47.31,84.24c1.91-2.19,4.23-4,5.87-6.28a5.68,5.68,0,0,0,1.36-3.82,3.14,3.14,0,0,0-.81-1.64c-.55-.54-1-1.36-1.51-2,0-.14,0-.14.14-.14.68.55,1.09,1.37,1.77,1.91a2.55,2.55,0,0,1,1,1.64A5.85,5.85,0,0,1,54,77.82c-1.64,2.6-4.09,4.64-6.41,6.69-.28.14-.55-.14-.28-.27" transform="translate(-5.6 -5.3)"/><path d="M48,84.51a26.67,26.67,0,0,1,3.41-.14c3.54.14,7.09.55,10.64,1s6.82,1,10.23,1.5c1.36.27,2.59.41,4,.68.55.14,1,.27,1.5.41A61.84,61.84,0,0,0,74.6,81.1c-1.5-2.73-3-5.46-4.23-8.19-.14-.13.27-.41.27-.13C71.87,75.64,73.51,78.23,75,81a28.43,28.43,0,0,1,3.13,7.23h.28c.27,0,.13.55-.14.55,0,.27.14.41.14.68s-.14.27-.28.14a2.08,2.08,0,0,1-.27-.82c-.68-.14-1.5-.14-2.32-.27-1.5-.28-3-.55-4.36-.69-3.82-.54-7.64-1.22-11.46-1.63-2.87-.41-5.73-.69-8.73-1a21.14,21.14,0,0,0-2.87,0c-.27,0-1.09,0-1.09.27s-.14.14-.14,0c0-.54.82-.81,1.1-.95" transform="translate(-5.6 -5.3)"/><path d="M79,88.74a11.75,11.75,0,0,0,.41-3.82,16.78,16.78,0,0,1,.14-3.68c0-.14.27-.28.41,0V79.87a17.75,17.75,0,0,1,0-2.73c0-.13.13-.13.27,0a14.43,14.43,0,0,1,0,2.46v2.86a16.12,16.12,0,0,1,0,2.6,10.57,10.57,0,0,1-1,4c-.14,0-.41,0-.28-.27" transform="translate(-5.6 -5.3)"/><path d="M72.55,59h1.09a2,2,0,0,0,1.23-.55.14.14,0,0,1,.14.14c-.55.68-1.64,1.5-2.46.82-.14-.27-.14-.41,0-.41" transform="translate(-5.6 -5.3)"/><path d="M71.32,77.82c.82,2.32,2.05,4.23,3,6.55,0,0,0,.14-.13,0A39.59,39.59,0,0,1,71.05,78c0-.14.27-.27.27-.14" transform="translate(-5.6 -5.3)"/><path d="M67.64,78.78c.68,1.23,1.5,2.32,2.18,3.55a11.37,11.37,0,0,1,1,1.77A3.14,3.14,0,0,1,71.32,86c0,.14-.27.27-.27.14-.27-.55-.41-1.23-.68-1.78a7.34,7.34,0,0,0-1-1.77c-.68-1.23-1.5-2.32-2.18-3.55,0-.27.27-.41.41-.27" transform="translate(-5.6 -5.3)"/><path d="M61.77,73.73a40.92,40.92,0,0,1,2.46,4.91,13.5,13.5,0,0,1,1.5,5c0,.14-.14.14-.27,0-.28-.82-.41-1.64-.68-2.32a20.88,20.88,0,0,0-1-2.59,40.19,40.19,0,0,0-2.46-4.91c.14-.14.41-.27.41-.14" transform="translate(-5.6 -5.3)"/><path d="M59.05,74a53.4,53.4,0,0,1,2.45,4.77,19.21,19.21,0,0,1,1,2.46A7.94,7.94,0,0,1,63,83.69c0,.14-.13.14-.27,0-.27-.68-.41-1.5-.68-2.32a18.53,18.53,0,0,0-1-2.45c-.68-1.64-1.64-3.14-2.45-4.78.13-.13.41-.27.41-.13" transform="translate(-5.6 -5.3)"/><path d="M57.41,80.55a6.72,6.72,0,0,0,.82,1.09c.27.28.68.55.82,1,0,.14,0,.14-.14.14a7.24,7.24,0,0,1-1-1,3,3,0,0,1-.68-1.09c-.13-.14,0-.27.14-.14" transform="translate(-5.6 -5.3)"/><path d="M80.74,69c0-.14.13-.14.13,0a35.08,35.08,0,0,1-.27,6.55c0,.13-.27.13-.27,0,.27-2.19.13-4.37.41-6.55" transform="translate(-5.6 -5.3)"/><path d="M82.1,60.77c-.14.14-.14.41-.27.68v-3c-.14-1.91-.41-3.68-.68-5.59,0-.14-.14-.14-.14,0,.14,1.77,0,3.41.14,5.18v2.73a19.61,19.61,0,0,0,0,2.87c0,.13.27.27.27.13A4,4,0,0,0,81.69,62a2.64,2.64,0,0,0,.41-1.23h0" transform="translate(-5.6 -5.3)"/><path d="M74.46,72.37c.82,2,1.77,4.09,2.59,6.27a47.59,47.59,0,0,1,2.19,6.14.14.14,0,0,1-.14.14c-.82-1.91-1.5-4-2.32-6s-1.64-4.23-2.59-6.28c0-.27.13-.41.27-.27" transform="translate(-5.6 -5.3)"/><path d="M28.76,15.35c2.18,5.18,4.23,10.23,6.41,15.41,0,.14-.13.27-.27.14C32.44,26,30.4,20.8,28.35,15.62c0-.27.27-.41.41-.27" transform="translate(-5.6 -5.3)"/><path d="M25.62,16.44c.41,2.45,1.78,4.5,2.73,6.82,0,.13-.13.27-.13.13-1.1-2.18-2.46-4.36-2.73-6.82-.14-.13.13-.27.13-.13" transform="translate(-5.6 -5.3)"/><path d="M23.58,18.48a11.67,11.67,0,0,0,1.09,4.78s0,.13-.14,0a8.15,8.15,0,0,1-1-4.78h0" transform="translate(-5.6 -5.3)"/><path d="M37,25.44c2.18,4.91,4.77,9.69,6.13,14.87,0,.14-.13.14-.13,0C41.31,35,38.58,29.94,36.4,24.76a2.35,2.35,0,0,0,.55.68" transform="translate(-5.6 -5.3)"/><path d="M28.62,13.44c1.64,1.36,3.28,2.86,4.78,4.36s3.27,2.87,4.77,4.37c.14.13-.13.27-.13.13-1.64-1.36-3.14-2.72-4.78-4.23a30.31,30.31,0,0,1-4.64-4.63c-.13,0,0-.14,0,0" transform="translate(-5.6 -5.3)"/><path d="M66.82,56c-2-2.32-4.23-4.5-6.27-6.82s-3.82-4.91-5.73-7.37c-3.69-5.05-7.23-10.23-11.33-14.87a46.49,46.49,0,0,0-5.32-5.18.13.13,0,0,0-.13.13,76.75,76.75,0,0,1,6.14,7c2,2.46,3.82,4.91,5.73,7.37,3.68,5.05,7.23,10.09,11.32,14.87a32.65,32.65,0,0,0,5.32,5.32c.27-.14.27-.28.27-.41" transform="translate(-5.6 -5.3)"/><path d="M80.74,53a10.6,10.6,0,0,0-1.64,1.09c-.55.41-1.09.95-1.64,1.36-1.09,1-2.18,2-3.27,3-.14.14.13.28.13.14l3.14-2.73c.55-.41,1.09-1,1.64-1.36A3.59,3.59,0,0,0,80.74,53h0" transform="translate(-5.6 -5.3)"/><path d="M17.3,29.81a14.48,14.48,0,0,1-.41-2.32c-.13-.82-.13-1.64-.27-2.46,0-.13-.27-.13-.27,0-.14,1.5-.41,3.55.68,4.91,0,.14.27,0,.27-.13" transform="translate(-5.6 -5.3)"/><path d="M19.48,28a11.89,11.89,0,0,1-.68-3.68c0-.14-.13-.14-.13,0A8.59,8.59,0,0,0,19.48,28h0" transform="translate(-5.6 -5.3)"/></g></g></svg>