<svg id="Layer_1" data-name="Layer 1" xmlns="http://www.w3.org/2000/svg" viewBox="0 0 506.85 488.28"><defs><style>.cls-1{fill:#cf4436;}</style></defs><title>jquery</title><g id="Layer_6" data-name="Layer 6"><path class="cls-1" d="M34.32,126.05c-44.88,64.5-39.29,148.41-5,217,.81,1.64,1.67,3.26,2.51,4.88.54,1,1,2.07,1.6,3.08.32.61.67,1.2,1,1.78.59,1.09,1.18,2.13,1.79,3.2q1.6,2.81,3.27,5.6c.62,1,1.23,2,1.87,3.08q1.84,3,3.8,5.94c.54.84,1.06,1.68,1.62,2.49,1.78,2.67,3.61,5.33,5.49,7.95l.16.2c.3.42.63.83.93,1.25,1.63,2.25,3.32,4.47,5,6.67l1.89,2.4c1.52,1.91,3.06,3.8,4.63,5.7l1.77,2.1c2.11,2.48,4.26,5,6.46,7.38l.13.14c.09.1.17.16.25.26,2.14,2.34,4.34,4.64,6.56,6.93l2.1,2.12c1.72,1.73,3.47,3.42,5.24,5.13.72.68,1.43,1.38,2.14,2q3.54,3.35,7.18,6.53a.33.33,0,0,0,.11.1c.41.36.84.72,1.25,1.06q3.21,2.79,6.52,5.51l2.7,2.16c1.79,1.43,3.61,2.85,5.44,4.24l2.9,2.21c2,1.48,4.05,2.95,6.1,4.37.75.55,1.47,1.07,2.22,1.58.21.15.4.3.61.44,2,1.33,3.93,2.63,5.92,3.92.86.56,1.7,1.15,2.57,1.7,3,1.93,6.14,3.84,9.27,5.69l2.56,1.44c2.3,1.33,4.61,2.63,7,3.9,1.27.69,2.57,1.33,3.85,2,1.66.88,3.3,1.75,5,2.59l1.16.56c.67.32,1.35.64,2,1q3.91,1.88,7.89,3.66c.57.25,1.11.5,1.68.74q4.55,2,9.2,3.84l2.25.88c2.86,1.1,5.77,2.19,8.68,3.22l1.09.37c3.2,1.12,6.44,2.16,9.69,3.17l2.34.71a98.19,98.19,0,0,0,10,2.82c217,39.57,280.06-130.42,280.06-130.42-52.94,69-146.92,87.17-236,66.91-3.38-.76-6.65-1.81-9.94-2.79-.84-.24-1.66-.49-2.48-.75q-4.81-1.49-9.57-3.11l-1.31-.47c-2.84-1-5.64-2.05-8.44-3.13-.79-.32-1.58-.61-2.36-.93q-4.6-1.82-9.11-3.79c-.63-.26-1.22-.54-1.82-.81-2.59-1.16-5.14-2.34-7.69-3.57l-2.22-1.06c-2-1-4-2-5.94-3-1.32-.7-2.67-1.36-4-2.08-2.41-1.29-4.77-2.63-7.12-4-.8-.45-1.61-.88-2.41-1.34-3.13-1.84-6.22-3.75-9.28-5.69-.84-.53-1.67-1.11-2.5-1.66-2.22-1.43-4.43-2.88-6.6-4.39-.72-.48-1.42-1-2.13-1.49-2.1-1.48-4.18-3-6.24-4.51-.93-.69-1.86-1.41-2.77-2.1-1.89-1.44-3.77-2.9-5.63-4.4l-2.51-2c-2.36-1.95-4.7-3.9-7-5.91-.24-.22-.51-.42-.77-.64-2.49-2.2-5-4.45-7.37-6.71-.71-.67-1.39-1.32-2.08-2-1.79-1.7-3.56-3.43-5.29-5.19-.7-.7-1.4-1.38-2.08-2.07q-3.31-3.41-6.5-6.88c-.11-.12-.22-.22-.32-.35-2.25-2.45-4.45-5-6.6-7.5L109,333.77q-2.41-2.89-4.75-5.87c-.58-.7-1.16-1.44-1.74-2.16-1.86-2.43-3.69-4.84-5.48-7.3C47.59,251,29.83,158,69.34,81.63" transform="translate(-2.13 -11.37)"/><path class="cls-1" d="M173.62,71.71c-32.46,46.71-30.69,109.22-5.38,158.61a207,207,0,0,0,14.36,24c4.86,7,10.25,15.26,16.7,20.85,2.34,2.58,4.78,5.09,7.28,7.56.63.65,1.28,1.26,1.92,1.9,2.42,2.35,4.89,4.66,7.44,6.91.1.08.2.19.3.26s.06,0,.07.07c2.82,2.47,5.74,4.85,8.69,7.19.66.5,1.31,1,2,1.54,3,2.27,6,4.51,9.09,6.64l.26.2c1.37.94,2.77,1.82,4.15,2.73.67.43,1.3.89,2,1.3q3.31,2.13,6.73,4.13c.33.2.64.36,1,.55,2,1.13,4,2.25,5.95,3.32.7.4,1.41.74,2.12,1.11,1.38.72,2.76,1.45,4.17,2.16l.62.28c2.86,1.41,5.75,2.77,8.7,4.05.62.27,1.27.52,1.92.79,2.35,1,4.73,2,7.11,2.89l3.06,1.12c2.16.8,4.34,1.54,6.54,2.28,1,.31,2,.64,3,.94a71.88,71.88,0,0,0,9.45,2.73C470.29,365.56,509,236.54,509,236.54,474.1,286.75,406.57,310.73,334.51,292c-3.2-.84-6.35-1.76-9.49-2.74-1-.3-1.9-.61-2.85-.93-2.23-.72-4.44-1.49-6.64-2.28-1-.37-2-.73-3-1.11q-3.62-1.4-7.15-2.89c-.64-.28-1.3-.52-1.92-.81q-4.44-1.93-8.75-4.06c-1.48-.73-2.93-1.49-4.38-2.23l-2.53-1.31c-1.87-1-3.72-2.06-5.55-3.13-.43-.25-.88-.48-1.32-.75-2.27-1.33-4.51-2.69-6.72-4.1-.68-.44-1.34-.91-2-1.35-1.46-.95-2.92-1.91-4.36-2.88-3.08-2.13-6.09-4.36-9-6.63-.68-.53-1.37-1.06-2-1.6-31.55-24.9-56.54-58.94-68.43-97.53-12.46-40-9.78-84.95,11.81-121.41" transform="translate(-2.13 -11.37)"/><path class="cls-1" d="M290.77,31.12c-19.13,28.15-21,63.12-7.73,94.21,14,33,42.68,58.9,76.17,71.17,1.38.52,2.75,1,4.16,1.45.61.19,1.21.4,1.83.58a53.62,53.62,0,0,0,6,1.73c92.52,17.87,117.61-47.48,124.29-57.1-22,31.65-58.92,39.24-104.25,28.25-3.58-.88-7.52-2.17-11-3.4a134.19,134.19,0,0,1-13-5.4,136.16,136.16,0,0,1-22.84-13.93c-40.55-30.78-65.75-89.49-39.29-137.31" transform="translate(-2.13 -11.37)"/></g></svg>