<svg id="Layer_1" data-name="Layer 1" xmlns="http://www.w3.org/2000/svg" viewBox="0 0 497 426.61"><defs><style>.cls-1{fill:#cf4436;}</style></defs><title>responsive</title><path class="cls-1" d="M488.15,127.24H336.53a16.84,16.84,0,0,0-16.85,16.84V455.76a16.84,16.84,0,0,0,16.85,16.85H488.15A16.84,16.84,0,0,0,505,455.76V144.08A16.84,16.84,0,0,0,488.15,127.24ZM437.61,148.3a8.42,8.42,0,1,1-8.42,8.42A8.42,8.42,0,0,1,437.61,148.3Zm-54.75,4.21h25.27a4.21,4.21,0,0,1,0,8.42H382.86a4.21,4.21,0,1,1,0-8.42Zm29.48,299A12.64,12.64,0,1,1,425,438.92,12.64,12.64,0,0,1,412.34,451.55ZM345,405.22v-219H479.73v219Z" transform="translate(-8 -46)"/><path class="cls-1" d="M33.27,71.27H454.46v42.12h25.27V62.85A16.84,16.84,0,0,0,462.88,46h-438A16.84,16.84,0,0,0,8,62.85V374.53a16.84,16.84,0,0,0,16.85,16.84H189.11a33.7,33.7,0,0,1-33.69,33.7v25.27H302.83V315.56H33.27ZM256.5,340.83a12.64,12.64,0,1,1-12.64,12.64A12.64,12.64,0,0,1,256.5,340.83Z" transform="translate(-8 -46)"/></svg>