<svg id="Layer_1" data-name="Layer 1" xmlns="http://www.w3.org/2000/svg" viewBox="0 0 400 100"><defs><style>.cls-1{fill:#cf4436;}</style></defs><title>Artboard 1</title><path class="cls-1" d="M152.88,64.41c42.94-6,86.39-8.32,129-16.64,1.5-.29,1.06-2.49-.34-2.55-89.09-4-177.7,13.88-264.61,31.26A1.3,1.3,0,0,0,17.28,79c120.18-6.54,238.37-31,357.9-43.7v-2.6C289.11,43.09,202.1,45.5,116.81,61.91c-1.43.27-1.11,2.72.35,2.55C208,54,298,35.52,389.74,33.25a1.3,1.3,0,0,0,0-2.6,1656.12,1656.12,0,0,0-285.42,25c-1.45.26-1.1,2.63.35,2.56,95.5-4.39,190.15-18.54,285.07-29.13,1.65-.19,1.67-2.78,0-2.6C291.83,36.93,194,49.52,98.08,72.31c-1.65.39-.93,2.8.69,2.51C192.06,58.2,285.11,39.68,379.34,29.09c1.64-.19,1.66-2.79,0-2.6l-56.19,6.24c-1.64.18-1.66,2.79,0,2.6l56.19-6.24v-2.6C284.88,37.1,191.6,55.66,98.08,72.31l.69,2.51c95.68-22.73,193.29-35.31,291-45.73v-2.6c-94.92,10.6-189.57,24.74-285.07,29.13.11.85.23,1.7.35,2.55A1652,1652,0,0,1,389.74,33.25v-2.6C298,32.92,208.05,51.41,117.16,61.86c.11.85.22,1.7.34,2.55,85.06-16.36,171.84-18.74,257.68-29.08,1.63-.2,1.67-2.78,0-2.6C255.65,45.45,137.46,69.89,17.28,76.43c.11.85.22,1.7.34,2.55,86.7-17.33,175-35.16,263.92-31.17-.12-.85-.23-1.7-.35-2.55-42.61,8.32-86.06,10.63-129,16.65-1.65.23-1,2.74.7,2.5Z"/></svg>